<svg width="1600" height="1134" viewBox="0 0 1600 1134" fill="none" xmlns="http://www.w3.org/2000/svg">
<g clip-path="url(#clip0_129_2)">
<path opacity="0.1" d="M531.934 1132.7C609.852 1132.7 673.018 1122.56 673.018 1110.04C673.018 1097.53 609.852 1087.38 531.934 1087.38C454.015 1087.38 390.849 1097.53 390.849 1110.04C390.849 1122.56 454.015 1132.7 531.934 1132.7Z" fill="#4C0ACE"/>
<path opacity="0.1" d="M1298.85 1133.34C1396.08 1133.34 1474.9 1123.19 1474.9 1110.68C1474.9 1098.16 1396.08 1088.02 1298.85 1088.02C1201.62 1088.02 1122.8 1098.16 1122.8 1110.68C1122.8 1123.19 1201.62 1133.34 1298.85 1133.34Z" fill="#4C0ACE"/>
<path opacity="0.1" d="M20.0391 489.684H166.988V689.973H30.7971C30.4351 692.029 30.0876 694.1 29.7112 696.17H166.988V857.699C166.742 857.627 166.524 857.54 166.293 857.453C162.412 855.918 158.561 854.297 154.709 852.559L152.248 851.444C148.387 849.62 144.526 847.689 140.665 845.653C139.318 844.943 137.972 844.205 136.639 843.452C115.204 831.444 95.7316 816.23 78.8967 798.335C78.4044 797.857 77.9411 797.35 77.4488 796.887C75.1032 794.339 72.801 791.761 70.5712 789.126L68.1098 786.23C65.4746 783.001 62.9263 779.686 60.4503 776.327C60.0883 775.834 59.7408 775.342 59.3644 774.879C49.2949 760.917 40.9339 745.799 34.4603 729.849C34.2576 729.371 34.0839 728.85 33.8956 728.401C31.9072 723.285 30.1455 718.121 28.6108 712.908C27.9447 710.722 27.3076 708.564 26.7574 706.291C26.5547 705.625 26.381 704.974 26.2217 704.322C17.9976 672.222 17.0275 638.876 17.0275 605.763C17.0275 601.897 17.0275 598.016 17.0275 594.179C17.0275 580.786 17.1867 567.306 17.4184 553.841C17.4184 550.351 17.5632 546.876 17.6356 543.372C17.8383 534.482 18.1279 525.592 18.5043 516.702C18.5912 514.226 18.707 511.764 18.8374 509.303C18.8374 507.884 18.9098 506.465 19.0545 505.046C19.402 499.891 19.6916 494.78 20.0391 489.684Z" fill="#4C0ACE"/>
<path opacity="0.1" d="M166.988 266.676H86.3824C99.4852 246.168 113.802 226.46 129.255 207.659C141.229 192.949 153.87 178.614 166.988 164.801V266.676Z" fill="#4C0ACE"/>
<path opacity="0.1" d="M166.988 272.873V483.486H20.5024C20.5024 482.878 20.6038 482.256 20.6472 481.648C20.7775 479.983 20.9079 478.317 21.0526 476.667C21.2119 474.727 21.3857 472.772 21.5739 470.875C21.7621 468.978 21.9648 466.662 22.182 464.562C22.3992 462.463 22.6019 460.334 22.8481 458.235C23.0942 456.135 23.3114 454.036 23.572 451.951C23.8326 449.866 24.0643 447.752 24.3394 445.667C24.5566 443.93 24.7883 442.207 25.0199 440.469C25.3529 438.022 25.7004 435.561 26.0769 433.128C26.0769 432.766 26.1783 432.39 26.2362 432.042C28.8789 414.235 32.4797 396.584 37.0231 379.164C41.7789 360.892 47.8519 342.987 55.1944 325.592C62.9981 307.394 72.1352 289.797 82.531 272.946L166.988 272.873Z" fill="#4C0ACE"/>
<path opacity="0.1" d="M202.071 489.669V689.973H515.934V489.669H202.071ZM202.071 696.156V868.168C203.866 868.544 205.647 868.906 207.413 869.21C209.817 869.673 212.206 870.093 214.653 870.455C215.116 870.528 215.594 870.6 216.101 870.644C217.056 870.803 218.041 870.933 218.997 871.063C221.415 871.396 223.818 871.672 226.236 871.889C227.38 872.005 228.538 872.106 229.697 872.193L232.491 872.41C234.011 872.526 235.517 872.613 237.009 872.656C237.935 872.656 238.862 872.743 239.818 872.772C240.542 872.772 241.266 872.772 242.018 872.772C242.771 872.772 243.843 872.772 244.755 872.772C246 872.772 247.245 872.772 248.476 872.772H250.141C251.386 872.772 252.632 872.772 253.862 872.656H253.949C254.803 872.656 255.672 872.656 256.541 872.54C256.782 872.555 257.024 872.555 257.265 872.54C257.989 872.54 258.713 872.54 259.408 872.439H259.915L264.765 872.062C266.358 871.918 267.965 871.73 269.587 871.556L272.888 871.165C286.318 869.283 299.6 866.457 312.633 862.709C341.91 854.543 370.55 843.119 399.812 834.75C437.646 823.963 479.447 818.664 516.007 831.854V696.156H202.071ZM515.934 266.676V0.0144626C481.572 -0.35783 447.302 3.66129 413.958 11.9742C334.482 31.9409 263.172 75.2479 202.071 130.558V266.662H217.824V272.844H202.071V483.487H515.934V272.859H282.502V266.676H515.934ZM919.076 176.602C899.414 175.907 879.867 169.681 862.188 160.067C828.379 141.678 801.376 113.285 771.201 89.3216C708.506 39.4121 630.754 9.29557 550.988 1.82435V266.676H999.044L1000.16 265.503L919.076 176.602ZM959.893 169.362L1003.17 216.854V156.91C988.677 158.706 975.979 162.977 959.951 169.304L959.893 169.362ZM1003.17 910.881V696.156H910.953C910.707 695.244 910.461 694.317 910.172 693.39C910.447 694.317 910.678 695.244 910.939 696.156H551.046V851.444C554.463 853.978 557.837 856.642 561.182 859.35C564.787 862.246 568.349 865.301 571.925 868.298L575.53 871.281C577.253 872.729 578.991 874.176 580.743 875.538C584.218 878.356 587.727 881.136 591.269 883.877C593.021 885.325 594.816 886.628 596.597 887.99C624.871 909.606 654.696 929.114 685.832 946.355C692.811 950.216 699.853 953.985 706.957 957.663C711.692 960.081 716.456 962.485 721.234 964.816C728.415 968.32 735.655 971.698 742.952 974.951C810.231 1005.15 881.374 1025.88 954.347 1036.53C970.554 1038.92 986.824 1040.81 1003.16 1042.18V910.866H1004.6L1003.17 910.881ZM551.046 272.859V483.487H1003.23V272.859H551.046ZM551.046 489.669V689.973H1003.23V489.669H551.046ZM1038.33 156.65V223.514L1093.56 162.904C1075.26 159.951 1056.85 157.842 1038.33 156.577V156.65ZM1038.33 489.742V689.973H1478.13V489.669L1038.33 489.742ZM1476.52 926.779L1478.07 696.156H1038.33V1044.48C1066.65 1045.67 1095.03 1045.33 1123.32 1043.47H1123.81C1137.32 1042.62 1150.78 1041.38 1164.16 1039.76H1164.47C1235.89 1031.45 1305.74 1012.81 1371.81 984.435M1562.93 522.653C1561.28 518.758 1559.56 514.892 1557.81 511.069C1554.54 503.83 1551.08 496.793 1547.51 489.756H1513.2V689.973H1599.96C1599.91 633.273 1585.56 575.356 1562.98 522.58L1562.93 522.653ZM1513.2 696.228V894.592C1537.64 871.165 1558.29 844.364 1573.16 813.726C1591.04 776.833 1599.22 736.886 1599.88 696.199L1513.2 696.228ZM1513.2 431.376V483.501H1544.3C1534.89 465.557 1524.52 448.133 1513.24 431.304L1513.2 431.376ZM1214.93 195.946C1212.64 195.077 1210.35 194.194 1208.05 193.34C1183.77 184.373 1158.96 176.917 1133.76 171.013L1049.23 263.78L1047.61 265.503L1048.69 266.691H1349.54C1307.64 237.849 1262.47 214.077 1214.97 195.873L1214.93 195.946ZM1358.36 272.931H1044.49L1038.33 278.578V483.487H1092.39H1092.48H1478.19V384.232C1443.3 342.034 1403.02 304.591 1358.4 272.859L1358.36 272.931Z" fill="#4C0ACE"/>
<path opacity="0.1" d="M166.988 379.107V483.487H20.5024C20.5024 482.878 20.6038 482.256 20.6472 481.648C20.7775 479.983 20.9079 478.318 21.0526 476.667C21.2119 474.727 21.3857 472.772 21.5739 470.875C21.7621 468.979 21.9648 466.662 22.182 464.562C22.3992 462.463 22.6019 460.335 22.8481 458.235C23.0942 456.136 23.3114 454.036 23.572 451.951C23.8326 449.866 24.0643 447.752 24.3394 445.667C24.5566 443.93 24.7883 442.207 25.0199 440.469C25.3529 438.022 25.7004 435.561 26.0769 433.128C26.0769 432.766 26.1783 432.39 26.2362 432.042C28.8789 414.235 32.4797 396.584 37.0231 379.165L166.988 379.107Z" fill="#4C0ACE"/>
<path opacity="0.1" d="M20.0391 489.684H166.988V689.973H30.7971C30.4351 692.029 30.0876 694.1 29.7112 696.17H166.988V857.699C166.742 857.627 166.524 857.54 166.293 857.453C162.412 855.918 158.561 854.297 154.709 852.559L152.248 851.444C148.387 849.62 144.526 847.689 140.665 845.653C139.318 844.943 137.972 844.205 136.639 843.452C115.204 831.444 95.7316 816.23 78.8967 798.335C78.4044 797.857 77.9411 797.35 77.4488 796.887C75.1032 794.339 72.801 791.761 70.5712 789.126L68.1098 786.23C65.4746 783.001 62.9263 779.686 60.4503 776.327C60.0883 775.834 59.7408 775.342 59.3644 774.879C49.2949 760.917 40.9339 745.799 34.4603 729.849C34.2576 729.371 34.0839 728.85 33.8956 728.401C31.9072 723.285 30.1455 718.121 28.6108 712.908C27.9447 710.722 27.3076 708.564 26.7574 706.291C26.5547 705.625 26.381 704.974 26.2217 704.322C17.9976 672.222 17.0275 638.876 17.0275 605.763C17.0275 601.897 17.0275 598.016 17.0275 594.179C17.0275 580.786 17.1867 567.306 17.4184 553.841C17.4184 550.351 17.5632 546.876 17.6356 543.372C17.8383 534.482 18.1279 525.592 18.5043 516.702C18.5912 514.226 18.707 511.764 18.8374 509.303C18.8374 507.884 18.9098 506.465 19.0545 505.046C19.402 499.891 19.6916 494.78 20.0391 489.684Z" fill="#4C0ACE"/>
<path opacity="0.1" d="M312.561 303.019V483.487H202.071V303.019H217.824V241.917H282.488V303.019H312.561Z" fill="#4C0ACE"/>
<path opacity="0.1" d="M312.561 489.669H202.085V689.959H312.561V489.669Z" fill="#4C0ACE"/>
<path opacity="0.1" d="M202.071 696.17H312.561V862.68C299.527 866.425 286.246 869.246 272.816 871.121L269.514 871.527C267.893 871.715 266.285 871.874 264.693 872.033C263.1 872.193 261.449 872.309 259.842 872.41H259.335C258.64 872.41 257.888 872.497 257.207 872.511H256.469C255.6 872.511 254.731 872.598 253.862 872.627C252.632 872.7 251.401 872.714 250.141 872.728C249.605 872.728 249.099 872.728 248.563 872.728C247.318 872.728 246.087 872.728 244.842 872.728H242.105C241.367 872.728 240.657 872.728 239.89 872.728L237.096 872.627C235.648 872.627 234.084 872.468 232.578 872.366L229.798 872.164L226.338 871.845C223.905 871.628 221.487 871.353 219.098 871.02L216.202 870.614L214.754 870.412C212.336 870.035 209.947 869.63 207.515 869.167C205.734 868.863 203.967 868.486 202.172 868.124L202.071 696.17Z" fill="#4C0ACE"/>
<path opacity="0.1" d="M1003.23 281.706H912.126V483.472H1003.23V281.706Z" fill="#4C0ACE"/>
<path opacity="0.1" d="M1003.24 489.669V689.973H551.046V603.576H791.906V654.543H912.126V489.669H1003.24Z" fill="#4C0ACE"/>
<path opacity="0.1" d="M1004.68 910.924H1003.23V1042.32C986.916 1040.94 970.651 1039.06 954.434 1036.69C881.425 1026 810.252 1005.23 742.952 974.98C723.521 966.235 704.486 956.688 685.847 946.34C654.711 929.091 624.882 909.584 596.597 887.975C589.493 882.531 582.48 876.961 575.559 871.266C570.767 867.313 566.003 863.259 561.181 859.321C557.837 856.613 554.463 853.949 551.046 851.401V696.17H910.924C910.678 695.244 910.432 694.317 910.171 693.405C910.446 694.317 910.707 695.244 910.953 696.17H1003.23V910.838C1003.72 910.852 1004.2 910.896 1004.68 910.924Z" fill="#4C0ACE"/>
<path opacity="0.1" d="M1240.83 266.676H1181.47V248.23H1208.08V193.282C1210.39 194.122 1212.68 194.985 1214.97 195.874V248.23H1240.83V266.676Z" fill="#4C0ACE"/>
<path opacity="0.1" d="M1383.86 483.486H1092.42C1092.42 483.486 1092.42 483.486 1092.52 483.559L1092.39 483.486H1038.33V281.72H1053.65V430.855H1123.65V342.532H1181.48V272.873H1240.85V342.59H1298.68V430.913H1383.86V483.486Z" fill="#4C0ACE"/>
<path opacity="0.1" d="M1038.33 489.669V689.973H1383.86V489.669H1038.33ZM1477.65 925.751L1478.13 767.205H1383.86V696.257H1038.33V1044.48C1066.65 1045.67 1095.03 1045.33 1123.32 1043.47H1123.81C1137.32 1042.62 1150.78 1041.38 1164.16 1039.76H1164.47C1235.89 1031.45 1305.74 1012.81 1371.81 984.435" fill="#4C0ACE"/>
<path opacity="0.1" d="M1519.34 696.17H1599.94C1599.23 736.842 1591.07 776.79 1573.2 813.683C1558.33 844.335 1537.67 871.136 1513.26 894.549V767.132H1519.34V696.17Z" fill="#4C0ACE"/>
<path opacity="0.1" d="M1599.99 689.973H1519.34V522.58H1562.98C1585.56 575.356 1599.91 633.273 1599.99 689.973Z" fill="#4C0ACE"/>
<path opacity="0.1" d="M1003.24 337.798H954.434V401.057H1003.24V337.798Z" fill="#4C0ACE"/>
<path opacity="0.1" d="M1003.24 468.921H954.434V483.487H1003.24V468.921Z" fill="#4C0ACE"/>
<path opacity="0.1" d="M1003.24 489.669H954.434V532.165H1003.24V489.669Z" fill="#4C0ACE"/>
<path opacity="0.1" d="M1003.24 600.043H954.434V663.303H1003.24V600.043Z" fill="#4C0ACE"/>
<path opacity="0.1" d="M1003.24 731.166H954.434V794.425H1003.24V731.166Z" fill="#4C0ACE"/>
<path opacity="0.1" d="M1003.23 910.838C1003.72 910.838 1004.2 910.838 1004.68 910.924H1003.23V925.621H954.434V862.289H1003.23V910.838Z" fill="#4C0ACE"/>
<path opacity="0.1" d="M1003.23 993.383V1042.25C986.916 1040.87 970.651 1038.99 954.434 1036.62V993.383H1003.23Z" fill="#4C0ACE"/>
<path opacity="0.1" d="M760.226 685.325H551.046V689.973H760.226V685.325Z" fill="#4C0ACE"/>
<path opacity="0.1" d="M760.226 696.156H551.046V713.965H760.226V696.156Z" fill="#4C0ACE"/>
<path opacity="0.1" d="M760.226 772.345H551.046V800.985H760.226V772.345Z" fill="#4C0ACE"/>
<path opacity="0.1" d="M760.211 859.365V888.004H596.597C589.493 882.579 582.475 877.01 575.545 871.295C570.752 867.342 566.003 863.288 561.167 859.365H760.211Z" fill="#4C0ACE"/>
<path opacity="0.1" d="M760.211 946.369V974.98H742.938C723.526 966.225 704.496 956.674 685.847 946.326L760.211 946.369Z" fill="#4C0ACE"/>
<path opacity="0.1" d="M1164.51 509.086H1123.33V550.264H1164.51V509.086Z" fill="#4C0ACE"/>
<path opacity="0.1" d="M272.917 317.223H231.738V358.402H272.917V317.223Z" fill="#4C0ACE"/>
<path opacity="0.1" d="M272.917 412.872H231.738V454.051H272.917V412.872Z" fill="#4C0ACE"/>
<path opacity="0.1" d="M272.917 508.521H231.738V549.699H272.917V508.521Z" fill="#4C0ACE"/>
<path opacity="0.1" d="M272.917 604.156H231.738V645.334H272.917V604.156Z" fill="#4C0ACE"/>
<path opacity="0.1" d="M272.917 699.804H231.738V740.983H272.917V699.804Z" fill="#4C0ACE"/>
<path opacity="0.1" d="M272.917 795.454H231.738V836.632H272.917V795.454Z" fill="#4C0ACE"/>
<path opacity="0.1" d="M1321.71 509.086H1280.53V550.264H1321.71V509.086Z" fill="#4C0ACE"/>
<path opacity="0.1" d="M1164.51 610.657H1123.33V651.835H1164.51V610.657Z" fill="#4C0ACE"/>
<path opacity="0.1" d="M1321.71 610.657H1280.53V651.835H1321.71V610.657Z" fill="#4C0ACE"/>
<path opacity="0.1" d="M1164.51 712.213H1123.33V753.392H1164.51V712.213Z" fill="#4C0ACE"/>
<path opacity="0.1" d="M1321.71 712.213H1280.53V753.392H1321.71V712.213Z" fill="#4C0ACE"/>
<path opacity="0.1" d="M1164.51 813.784H1123.33V854.963H1164.51V813.784Z" fill="#4C0ACE"/>
<path opacity="0.1" d="M1321.71 813.784H1280.53V854.963H1321.71V813.784Z" fill="#4C0ACE"/>
<path opacity="0.1" d="M1164.51 915.355H1123.33V956.534H1164.51V915.355Z" fill="#4C0ACE"/>
<path opacity="0.1" d="M1321.71 915.355H1280.53V956.534H1321.71V915.355Z" fill="#4C0ACE"/>
<path opacity="0.1" d="M1123.33 1043.47V1016.91H1164.5V1039.69L1123.33 1043.47Z" fill="#4C0ACE"/>
<path opacity="0.1" d="M26.0624 432.013V455.571H166.988V432.013H26.0624ZM40.1071 454.094H28.6107V433.461H40.194L40.1071 454.094ZM54.1374 454.094H42.5541V433.461H54.1374V454.094ZM68.1387 454.094H56.5554V433.461H68.1387V454.094ZM82.1689 454.094H70.6001V433.461H82.1834L82.1689 454.094ZM96.1847 454.094H84.6014V433.461H96.1847V454.094ZM110.215 454.094H98.6317V433.461H110.215V454.094ZM124.245 454.094H112.662V433.461H124.245V454.094ZM138.261 454.094H126.678V433.461H138.261V454.094ZM152.277 454.094H140.694V433.461H152.277V454.094ZM166.293 454.094H154.709V433.461H166.293V454.094Z" fill="#4C0ACE"/>
<path opacity="0.1" d="M26.0624 500.557V524.115H166.988V500.557H26.0624ZM40.1071 522.624H28.6107V502.049H40.194L40.1071 522.624ZM54.1374 522.624H42.5541V502.049H54.1374V522.624ZM68.1387 522.624H56.5554V502.049H68.1387V522.624ZM82.1689 522.624H70.6001V502.049H82.1834L82.1689 522.624ZM96.1847 522.624H84.6014V502.049H96.1847V522.624ZM110.215 522.624H98.6317V502.049H110.215V522.624ZM124.245 522.624H112.662V502.049H124.245V522.624ZM138.261 522.624H126.678V502.049H138.261V522.624ZM152.277 522.624H140.694V502.049H152.277V522.624ZM166.293 522.624H154.709V502.049H166.293V522.624Z" fill="#4C0ACE"/>
<path opacity="0.1" d="M26.0624 569.131V592.732H166.988V569.131H26.0624ZM40.1071 591.197H28.6107V570.607H40.194L40.1071 591.197ZM54.1374 591.197H42.5541V570.607H54.1374V591.197ZM68.1387 591.197H56.5554V570.607H68.1387V591.197ZM82.1689 591.197H70.6001V570.607H82.1834L82.1689 591.197ZM96.1847 591.197H84.6014V570.607H96.1847V591.197ZM110.215 591.197H98.6317V570.607H110.215V591.197ZM124.245 591.197H112.662V570.607H124.245V591.197ZM138.261 591.197H126.678V570.607H138.261V591.197ZM152.277 591.197H140.694V570.607H152.277V591.197ZM166.293 591.197H154.709V570.607H166.293V591.197Z" fill="#4C0ACE"/>
<path opacity="0.1" d="M26.0624 637.704V661.232H166.988V637.704H26.0624ZM40.1071 659.77H28.6107V639.166H40.194L40.1071 659.77ZM54.1374 659.77H42.5541V639.166H54.1374V659.77ZM68.1387 659.77H56.5554V639.166H68.1387V659.77ZM82.1689 659.77H70.6001V639.166H82.1834L82.1689 659.77ZM96.1847 659.77H84.6014V639.166H96.1847V659.77ZM110.215 659.77H98.6317V639.166H110.215V659.77ZM124.245 659.77H112.662V639.166H124.245V659.77ZM138.261 659.77H126.678V639.166H138.261V659.77ZM152.277 659.77H140.694V639.166H152.277V659.77ZM166.293 659.77H154.709V639.166H166.293V659.77Z" fill="#4C0ACE"/>
<path opacity="0.1" d="M26.6705 706.262C27.2352 708.478 27.8723 710.693 28.5383 712.879V707.739H40.1216V728.328H33.9246C34.1128 728.806 34.301 729.328 34.4892 729.776H166.988V706.262H26.6705ZM54.1809 728.328H42.5976V707.739H54.1809V728.328ZM68.1822 728.328H56.5989V707.739H68.1822V728.328ZM82.2124 728.328H70.6002V707.739H82.1835L82.2124 728.328ZM96.2282 728.328H84.6449V707.739H96.2282V728.328ZM110.258 728.328H98.6752V707.739H110.258V728.328ZM124.289 728.328H112.705V707.739H124.289V728.328ZM138.304 728.328H126.721V707.739H138.304V728.328ZM152.32 728.328H140.737V707.739H152.32V728.328ZM166.336 728.328H154.753V707.739H166.336V728.328Z" fill="#4C0ACE"/>
<path opacity="0.1" d="M59.3933 774.835C59.7553 775.299 60.1028 775.82 60.4792 776.283H68.1387V786.172C68.964 787.157 69.7748 788.141 70.6146 789.068V776.225H82.1979V796.887H77.5067C77.97 797.365 78.4189 797.871 78.9546 798.335H167.031V774.835H59.3933ZM96.1847 796.887H84.6014V776.312H96.1847V796.887ZM110.215 796.887H98.6317V776.312H110.215V796.887ZM124.245 796.887H112.662V776.312H124.245V796.887ZM138.261 796.887H126.678V776.312H138.261V796.887ZM152.277 796.887H140.694V776.312H152.277V796.887ZM166.293 796.887H154.709V776.312H166.293V796.887Z" fill="#4C0ACE"/>
<path opacity="0.1" d="M136.697 843.394C138.015 844.147 139.361 844.842 140.722 845.595V844.871H152.306V851.386L154.767 852.53V844.871H166.351V857.395C166.573 857.506 166.806 857.593 167.045 857.656V843.394H136.697Z" fill="#4C0ACE"/>
<path opacity="0.1" d="M910.171 693.39C910.447 694.317 910.678 695.244 910.939 696.156C910.707 695.244 910.461 694.317 910.171 693.39ZM217.882 266.633V272.815H282.56V266.633H217.882ZM910.171 693.39C910.447 694.317 910.678 695.244 910.939 696.156C910.707 695.244 910.461 694.317 910.171 693.39ZM910.171 693.39C910.447 694.317 910.678 695.244 910.939 696.156C910.707 695.244 910.461 694.317 910.171 693.39Z" fill="#4C0ACE"/>
<path d="M668.356 549.728C668.356 549.728 662.651 548.932 662.651 540.621C662.651 532.31 658.568 516.788 658.568 516.788C658.568 516.716 655.035 489.756 650.156 485.47C645.276 481.184 639.007 456.02 639.007 456.02C639.007 456.02 637.935 442.366 635.749 439.427C633.563 436.487 630.609 429.291 626.251 419.025C621.892 408.76 603.721 401.651 603.721 401.651C603.721 401.651 570.868 382.596 561.558 376.384C560.712 375.874 559.921 375.277 559.198 374.604C557.576 372.475 550.51 372.432 550.51 372.432C549.772 367.769 549.063 362.412 548.831 357.562C548.831 357.04 548.831 356.519 548.758 355.998C559.14 349.861 566.959 340.186 570.781 328.748C570.955 328.198 571.1 327.619 571.259 327.069C571.881 326.864 572.453 326.531 572.94 326.092C573.426 325.654 573.815 325.118 574.082 324.52C574.922 322.653 574.937 320.466 575.979 318.729C577.195 316.673 579.512 315.572 581.336 314.023C585.941 310.114 587.128 303.526 586.911 297.531C586.766 292.681 585.984 287.787 586.288 282.965L586.375 281.749C586.462 281.025 586.563 280.301 586.694 279.606C587.403 276.015 588.952 272.627 589.821 269.065C590.69 265.503 590.777 261.493 588.75 258.423C585.782 253.92 579.599 253.022 574.169 252.559C568.016 252.038 562.514 252.718 558.575 247.607C556.732 244.936 554.658 242.431 552.378 240.122C551.567 239.369 543.691 234.562 543.691 234.243C536.003 230.683 527.289 230.014 519.149 232.361C515.066 233.548 511.214 235.488 507.073 236.458C498.139 238.572 487.859 236.285 480.272 241.396C476.044 244.292 473.511 248.896 471.136 253.384C469.205 257.081 467.246 260.774 465.257 264.461C462.058 270.528 458.8 276.696 457.453 283.414C457.17 284.876 456.996 286.357 456.932 287.845V287.917C456.932 288.453 456.932 288.989 456.932 289.524V290.205C456.932 290.712 456.932 291.204 457.019 291.653C457.106 292.102 457.091 292.246 457.135 292.55C457.178 292.854 457.25 293.535 457.337 293.998C457.424 294.462 457.598 295.273 457.772 295.91C457.844 296.185 457.945 296.445 458.032 296.706C458.177 297.198 458.351 297.676 458.539 298.154C458.64 298.4 458.742 298.661 458.858 298.907C459.075 299.414 459.335 299.906 459.596 300.355C459.712 300.557 459.799 300.746 459.915 300.934C460.319 301.607 460.763 302.255 461.247 302.874C464.345 306.74 468.906 309.201 472.28 312.821C472.28 312.966 472.28 313.111 472.28 313.241C472.28 313.647 472.28 314.037 472.28 314.443C472.459 322.516 474.607 330.423 478.539 337.476C482.471 344.529 488.066 350.514 494.838 354.912C494.838 355.462 494.911 356.027 494.94 356.577C495.222 360.875 495.169 365.188 494.78 369.478C494.191 368.784 493.453 368.23 492.621 367.86C491.789 367.489 490.884 367.309 489.973 367.335C489.351 367.305 488.728 367.358 488.12 367.494L487.99 367.393V367.523C484.804 368.305 480.88 371.621 477.13 381.047C477.13 381.047 465.721 393.904 457.033 393.368C448.346 392.833 426.352 406.747 426.352 406.747C426.352 406.747 404.894 420.676 400.29 434.866C397.716 442.912 394.63 450.785 391.052 458.438L364.526 513.096L359.632 556.461C359.632 556.461 362.34 575.747 361.804 578.687C361.268 581.626 372.939 608.137 372.939 608.137C372.939 608.137 411.496 675.885 427.25 679.36L428.379 678.564C429.053 678.916 429.768 679.183 430.508 679.36L433.751 677.072C433.946 679.622 433.863 682.185 433.505 684.717C431.333 691.407 434.316 735.061 438.109 743.618C441.903 752.175 440.556 864.374 440.556 864.374L440.02 874.278C440.02 874.278 440.02 874.596 440.151 875.146L440.02 877.492L440.411 877.695C440.817 880.836 440.685 884.024 440.02 887.121C438.659 891.464 438.109 903.743 438.109 903.743C438.109 903.743 427.264 973.069 432.404 986.998C437.544 1000.93 441.917 1016.19 441.917 1016.19C441.917 1016.19 447.347 1033.56 442.178 1036.53C437.009 1039.5 422.312 1044.48 425.338 1051.72C428.09 1058.41 438.529 1076.33 440.078 1078.95L439.948 1080.33L437.819 1103.4C438.164 1106.44 438.99 1109.41 440.266 1112.2C442.598 1117.22 447.13 1122.44 455.745 1121.87C457.193 1121.77 458.872 1121.6 460.494 1121.38C476.262 1119.26 495.678 1112.23 495.678 1112.23C494.67 1111.59 493.746 1110.82 492.927 1109.95C492.152 1109.2 491.538 1108.3 491.122 1107.31C490.706 1106.31 490.498 1105.24 490.509 1104.16C490.741 1099.96 482.879 1079.95 480.924 1075.03C480.62 1074.32 480.46 1073.92 480.46 1073.92C480.46 1073.92 498.386 1055.18 495.403 1038.57C495.403 1038.57 475.567 1026.99 482.097 1020.63C488.627 1014.28 500.297 996.018 500.297 996.018C500.297 996.018 500.833 927.749 500.297 917.556C499.738 910.481 500.074 903.364 501.296 896.373C501.513 895.316 501.774 894.288 502.049 893.274C511.08 894.622 520.197 895.314 529.327 895.345C532.658 895.345 536.046 895.345 539.463 895.142C539.463 896.107 539.506 897.15 539.593 898.27C540.346 915.181 541.751 944.834 542.894 955.853C544.516 971.65 553.479 1014.22 553.479 1014.22C553.479 1014.22 536.379 1025.19 556.461 1052.24C556.461 1052.24 556.461 1062.04 555.129 1063.46C553.707 1068.1 552.561 1072.82 551.698 1077.59C550.858 1082.69 550.51 1087.84 551.871 1090.52C555.129 1096.92 574.676 1096.4 574.676 1096.4L575.154 1096.31C578.844 1095.93 582.573 1096.29 586.125 1097.36C589.677 1098.43 592.981 1100.2 595.845 1102.56C603.272 1108.52 631.463 1105.9 646.724 1104C652.704 1103.25 656.7 1102.56 656.7 1102.56C656.894 1101.88 656.963 1101.17 656.903 1100.47C656.744 1096.72 653.804 1088.5 633.881 1081.16C633.881 1081.16 615.145 1068.56 615.406 1057.58H615.015H612.843C614.421 1057.5 615.435 1057.58 615.435 1057.58C615.435 1057.58 608.094 1030.8 611.091 1028.63C614.088 1026.45 605.111 996.771 605.111 996.771C605.111 996.771 599.971 946.963 599.696 943.473C599.708 940.479 600.161 937.503 601.043 934.641L599.696 907.334C599.696 907.334 599.435 898.255 599.696 895.301C599.652 892.738 599.444 890.179 599.073 887.642C598.943 886.628 598.813 885.571 598.668 884.529C605.69 882.748 610.251 881.097 610.251 881.097L609.44 786.042C615.406 774.459 616.506 749.048 616.477 731.021C616.477 719.438 615.956 710.866 615.956 710.866L624.108 697.56C624.108 697.56 625.99 681.633 623.007 678.144C621.69 676.565 622.283 674.929 623.369 673.583C623.933 673.136 624.528 672.729 625.15 672.366C625.15 672.366 625.063 672.236 624.962 672.048C625.531 671.572 626.136 671.142 626.772 670.759C626.772 670.759 623.876 666.271 626.468 664.374C628.9 666.025 631.072 667.27 632.723 668.283C632.607 669.34 632.491 669.949 632.491 669.949L633.186 668.501C634.779 669.398 635.749 669.949 635.749 669.949C635.749 669.949 648.52 644.509 648.244 640.759C647.969 637.009 656.932 621.212 656.932 621.212C656.932 621.212 658.018 612.915 662.912 609.44C667.806 605.965 666.705 580.786 666.705 580.786C666.705 580.786 668.066 567.668 671.324 562.311C674.582 556.953 668.356 549.728 668.356 549.728ZM424.006 538.565L424.253 544.632C422.805 542.301 421.762 540.621 421.762 540.621L424.006 538.565Z" fill="url(#paint0_linear_129_2)"/>
<path d="M636.444 658.959L633.316 672.28C633.316 672.28 608.268 659.495 603.75 643.249C599.233 627.004 611.308 620.835 611.308 620.835L634.648 630.725L636.444 658.959Z" fill="white"/>
<path opacity="0.1" d="M636.444 658.959L633.316 672.28C633.316 672.28 608.268 659.495 603.75 643.249C599.233 627.004 611.308 620.835 611.308 620.835L634.648 630.725L636.444 658.959Z" fill="black"/>
<path d="M495.866 1112.31C495.866 1112.31 472.7 1120.83 456.773 1121.9C448.317 1122.46 443.872 1117.28 441.584 1112.29C440.334 1109.51 439.528 1106.55 439.195 1103.53L441.265 1080.58L442.366 1068.36L476.204 1059.57L480.996 1074.22L481.445 1075.33C483.371 1080.23 491.088 1100.14 490.856 1104.29C490.847 1105.36 491.052 1106.41 491.46 1107.39C491.868 1108.38 492.471 1109.27 493.231 1110.01C494.008 1110.89 494.893 1111.66 495.866 1112.31Z" fill="white"/>
<path d="M654.108 1100.64C654.166 1101.34 654.098 1102.04 653.906 1102.71C653.906 1102.71 604.358 1110.98 594.223 1102.71C591.365 1100.3 588.034 1098.51 584.444 1097.46C580.853 1096.4 577.082 1096.11 573.373 1096.6C573.373 1096.6 554.203 1097.13 551.003 1090.81C549.671 1088.16 550.018 1083.02 550.843 1077.96C551.685 1073.21 552.807 1068.51 554.202 1063.9L554.97 1063.29L559.531 1059.62L612.93 1058.05H613.335C613.075 1068.96 631.463 1081.49 631.463 1081.49C650.995 1088.73 653.877 1096.91 654.108 1100.64Z" fill="white"/>
<path opacity="0.1" d="M654.108 1100.64C654.159 1101.34 654.086 1102.04 653.891 1102.71C653.891 1102.71 604.358 1110.98 594.223 1102.71C591.367 1100.3 588.038 1098.51 584.45 1097.46C580.863 1096.41 577.094 1096.12 573.387 1096.6C573.387 1096.6 554.203 1097.13 551.017 1090.81C549.685 1088.15 550.018 1083.02 550.843 1077.96C558.228 1078.69 569.883 1080.53 574.459 1084.92C581.38 1091.59 593.108 1098.26 600.304 1098.78C605.936 1099.14 639.629 1100.21 654.108 1100.64Z" fill="black"/>
<path opacity="0.1" d="M495.866 1112.31C495.866 1112.31 472.7 1120.83 456.773 1121.9C448.317 1122.46 443.872 1117.28 441.599 1112.27C447.492 1114.25 455.672 1116.34 459.973 1114.43C465.069 1112.17 483.139 1110.71 493.274 1110.08C494.046 1110.93 494.916 1111.68 495.866 1112.31Z" fill="black"/>
<path d="M530.24 426.222C511.127 418.794 486.542 394.252 492.681 382.784C494.044 379.89 494.855 376.767 495.07 373.576C495.465 369.243 495.523 364.886 495.244 360.544C494.813 353.434 493.957 346.355 492.681 339.347C492.681 339.347 552.349 340.693 548.874 349.482C547.861 352.06 547.701 356.534 547.977 361.543C548.252 366.553 548.976 372.215 549.728 377.007C550.771 383.581 551.813 388.59 551.813 388.59C551.813 388.59 548.165 393.702 546.022 393.977C543.879 394.252 557.663 436.806 530.24 426.222Z" fill="#CF6F80"/>
<path opacity="0.1" d="M481.402 1075.33L480.953 1075.83C463.114 1054.25 441.541 1081.14 441.541 1081.14L441.222 1080.58L442.322 1068.36L476.16 1059.57L480.953 1074.22L481.402 1075.33Z" fill="black"/>
<path opacity="0.1" d="M613.35 1059.57C613.35 1059.57 600.319 1059.29 593.369 1065.43C586.419 1071.57 552.827 1066.76 554.275 1065.43C554.704 1064.77 554.963 1064.01 555.028 1063.23L559.589 1059.57L612.988 1057.99C613.191 1058.96 613.35 1059.57 613.35 1059.57Z" fill="black"/>
<path d="M503.598 890.147C502.627 892.546 501.89 895.034 501.397 897.575C500.19 904.533 499.854 911.615 500.398 918.656C500.934 928.792 500.398 996.713 500.398 996.713C500.398 996.713 488.945 1014.83 482.56 1021.21C476.175 1027.6 495.591 1039.06 495.591 1039.06C498.487 1055.57 480.938 1074.22 480.938 1074.22C463.1 1052.65 441.526 1079.55 441.526 1079.55C441.526 1079.55 429.798 1059.28 426.873 1052.04C423.948 1044.8 438.326 1039.79 443.379 1036.85C448.433 1033.91 443.133 1016.58 443.133 1016.58C443.133 1016.58 438.862 1001.39 433.794 987.533C428.727 973.677 439.383 904.698 439.383 904.698C439.383 904.698 439.933 892.449 441.251 888.178C441.916 885.096 442.048 881.922 441.642 878.795C441.555 877.738 441.454 876.855 441.381 876.261C441.309 875.668 441.251 875.393 441.251 875.393L441.454 875.045L448.693 861.551C448.693 861.551 507.073 881.648 503.598 890.147Z" fill="#4C0ACE"/>
<path d="M613.35 1057.97C613.35 1057.97 600.318 1057.7 593.368 1063.77C586.418 1069.83 552.827 1065.1 554.275 1063.77C555.723 1062.43 555.607 1052.57 555.607 1052.57C535.901 1025.67 552.711 1014.75 552.711 1014.75C552.711 1014.75 543.908 972.403 542.315 956.693C541.2 945.718 539.825 916.224 539.086 899.384C538.768 892.145 538.579 887.164 538.579 887.164L554.68 883.921L556.751 883.501L595.584 875.711C595.584 875.711 596.655 882.951 597.379 888.873C597.74 891.401 597.943 893.95 597.987 896.503C597.727 899.399 597.987 908.463 597.987 908.463L599.305 935.64C598.444 938.491 598 941.451 597.987 944.429C598.248 947.89 603.301 997.437 603.301 997.437C603.301 997.437 612.09 1027 609.093 1029.13C606.096 1031.26 613.35 1057.97 613.35 1057.97Z" fill="#4C0ACE"/>
<path opacity="0.1" d="M548.874 349.482C547.861 352.06 547.701 356.534 547.977 361.543C539.984 366.356 530.796 368.817 521.468 368.643C512.14 368.469 503.051 365.667 495.244 360.559C494.814 353.443 493.958 346.36 492.681 339.347C492.681 339.347 552.349 340.665 548.874 349.482Z" fill="black"/>
<path d="M571.939 317.483C571.951 322.701 571.13 327.887 569.507 332.846C565.879 343.957 558.441 353.427 548.506 359.584C538.571 365.741 526.779 368.187 515.215 366.491C503.651 364.794 493.059 359.065 485.311 350.314C477.562 341.563 473.157 330.355 472.873 318.671C472.873 318.265 472.873 317.889 472.873 317.483C472.761 310.906 473.959 304.373 476.398 298.264C478.838 292.155 482.469 286.593 487.08 281.902C491.691 277.211 497.191 273.485 503.257 270.942C509.324 268.399 515.836 267.089 522.414 267.089C528.992 267.089 535.504 268.399 541.57 270.942C547.637 273.485 553.136 277.211 557.747 281.902C562.359 286.593 565.99 292.155 568.429 298.264C570.868 304.373 572.066 310.906 571.954 317.483H571.939Z" fill="#CF6F80"/>
<path opacity="0.1" d="M530.24 426.222C511.127 418.794 486.542 394.252 492.681 382.784C494.044 379.89 494.855 376.767 495.07 373.576L521.234 395.077L537.421 408.354L549.728 377.022C550.771 383.595 551.813 388.605 551.813 388.605C551.813 388.605 548.165 393.716 546.022 393.991C543.879 394.266 557.663 436.806 530.24 426.222Z" fill="black"/>
<path d="M597.9 521.248L576.052 888.294L547.557 890.161L473.771 677.333L485.876 424.658L488.424 371.273L521.234 398.219L537.436 411.496L550.105 379.251L573.662 399.783L597.9 521.248Z" fill="#4C0ACE"/>
<path opacity="0.1" d="M503.598 890.147C502.628 892.546 501.891 895.034 501.397 897.575C480.663 894.373 460.526 888.082 441.656 878.911L441.266 878.708L441.396 876.377L441.468 875.161L448.708 861.667C448.708 861.667 507.073 881.648 503.598 890.147Z" fill="black"/>
<path opacity="0.1" d="M555.013 897.633C549.713 898.534 544.367 899.143 539 899.457C538.681 892.218 538.493 887.237 538.493 887.237L554.594 883.993L555.013 897.633Z" fill="black"/>
<path opacity="0.1" d="M597.292 888.945C586.998 891.624 571.1 894.636 556.867 892.753L556.664 883.573L595.497 875.784C595.497 875.784 596.568 882.951 597.292 888.945Z" fill="black"/>
<path opacity="0.1" d="M556.606 894.433C497.242 904.568 442.873 875.509 442.873 875.509L443.394 865.663C443.394 865.663 444.74 754.043 441.005 745.486C437.269 736.929 434.359 693.535 436.473 686.875C438.587 680.214 428.755 580.337 428.755 580.337L427.163 539.796L368.87 516.18L394.932 461.855C398.452 454.238 401.48 446.403 403.996 438.399C408.528 424.296 429.566 410.439 429.566 410.439C429.566 410.439 451.14 396.597 459.668 397.119C468.197 397.64 479.374 384.869 479.374 384.869C487.628 363.831 495.099 373.358 495.099 373.358C495.099 374.357 495.099 373.358 494.693 376.471C491.798 399.566 541.519 472.54 542.228 473.829L546.963 589.17L551.756 735.133L556.606 894.433Z" fill="black"/>
<path d="M555.013 894.433C495.649 904.568 441.265 875.509 441.265 875.509L441.801 865.663C441.801 865.663 443.148 754.043 439.398 745.486C435.648 736.929 432.752 693.535 434.88 686.875C437.009 680.214 427.163 580.337 427.163 580.337L425.556 539.796L367.234 516.094L393.296 461.768C396.809 454.148 399.836 446.314 402.36 438.312C406.878 424.209 427.93 410.353 427.93 410.353C427.93 410.353 449.504 396.511 458.018 397.032C466.531 397.553 477.724 384.782 477.724 384.782C485.991 363.744 495.099 373.272 495.099 373.272C495.099 374.271 494.23 374.719 494.693 376.385C501.064 398.784 539.926 472.454 540.636 473.742L545.428 589.083L550.221 735.047L555.013 894.433Z" fill="white"/>
<path opacity="0.1" d="M539.014 477.029C532.629 474.365 498.805 435.749 498.805 435.749V426.96C497.575 424.064 490.263 425.831 484.326 427.858L486.875 374.473L489.77 376.877C496.112 399.262 538.276 475.74 539.014 477.029Z" fill="black"/>
<path d="M540.621 473.829C534.221 471.165 500.398 432.549 500.398 432.549V423.76C499.167 420.864 491.855 422.631 485.919 424.658L488.482 371.273L491.378 373.677C497.734 396.062 539.912 472.555 540.621 473.829Z" fill="white"/>
<path opacity="0.1" d="M442.873 666.416C443.669 666.416 484.153 662.159 484.153 662.159C484.153 662.159 508.666 710.36 507.059 722.088C505.451 733.816 502.541 744.197 492.681 742.359C482.821 740.52 439.615 743.807 439.615 743.807L442.873 666.416Z" fill="black"/>
<path d="M441.265 663.216C442.062 663.216 482.545 658.959 482.545 658.959C482.545 658.959 507.044 707.174 505.451 718.888C503.859 730.602 500.919 740.998 491.074 739.159C481.228 737.32 438.008 740.607 438.008 740.607L441.265 663.216Z" fill="white"/>
<path d="M471.773 640.585C471.773 640.585 508.926 660.552 509.723 666.647C510.519 672.743 490.813 663.983 486.556 662.926C483.754 662.251 480.902 661.806 478.028 661.594L449.634 662.362L471.773 640.585Z" fill="#CF6F80"/>
<path opacity="0.1" d="M528.647 479.519C530.806 479.519 532.556 477.769 532.556 475.61C532.556 473.451 530.806 471.701 528.647 471.701C526.488 471.701 524.738 473.451 524.738 475.61C524.738 477.769 526.488 479.519 528.647 479.519Z" fill="black"/>
<path d="M528.647 477.926C530.806 477.926 532.556 476.176 532.556 474.017C532.556 471.858 530.806 470.108 528.647 470.108C526.488 470.108 524.738 471.858 524.738 474.017C524.738 476.176 526.488 477.926 528.647 477.926Z" fill="#3F3D56"/>
<path opacity="0.1" d="M535.843 648.751C538.002 648.751 539.752 647.001 539.752 644.842C539.752 642.683 538.002 640.932 535.843 640.932C533.684 640.932 531.934 642.683 531.934 644.842C531.934 647.001 533.684 648.751 535.843 648.751Z" fill="black"/>
<path d="M535.843 647.144C538.002 647.144 539.752 645.394 539.752 643.235C539.752 641.075 538.002 639.325 535.843 639.325C533.684 639.325 531.934 641.075 531.934 643.235C531.934 645.394 533.684 647.144 535.843 647.144Z" fill="#3F3D56"/>
<path opacity="0.1" d="M532.542 564.135C534.701 564.135 536.451 562.385 536.451 560.226C536.451 558.067 534.701 556.316 532.542 556.316C530.383 556.316 528.632 558.067 528.632 560.226C528.632 562.385 530.383 564.135 532.542 564.135Z" fill="black"/>
<path d="M532.542 562.543C534.701 562.543 536.451 560.792 536.451 558.633C536.451 556.474 534.701 554.724 532.542 554.724C530.383 554.724 528.632 556.474 528.632 558.633C528.632 560.792 530.383 562.543 532.542 562.543Z" fill="#3F3D56"/>
<path d="M622.66 660.783C622.66 660.783 625.324 664.78 622.66 666.647C619.996 668.515 622.92 673.033 622.92 673.033C622.92 673.033 616.275 676.928 619.199 680.432C622.124 683.935 620.271 699.761 620.271 699.761L612.278 712.995C612.278 712.995 612.756 721.523 612.785 733.049C612.785 751.032 611.728 776.312 605.878 787.838L606.689 882.401C606.689 882.401 578.701 892.623 555.274 889.51L551.799 737.769C551.799 737.769 556.867 651.719 558.734 635.213C559.828 626.644 560.273 618.004 560.067 609.368C560.067 609.368 559.27 583.537 556.592 571.549C556.592 571.549 553.696 519.612 553.406 505.234C553.276 498.357 553.638 478.289 554.043 459.205C554.492 438.341 554.999 418.664 554.999 418.664L549.714 376.848C549.714 376.848 554.999 376.312 556.592 378.441C557.305 379.107 558.081 379.703 558.908 380.222C568.03 386.39 600.261 405.357 600.261 405.357C600.261 405.357 618.099 412.452 622.37 422.616C626.642 432.781 629.61 439.991 631.68 442.887C633.751 445.783 634.88 459.393 634.88 459.393C634.88 459.393 641.019 484.442 645.812 488.685C650.604 492.927 654.108 519.916 654.108 519.916L611.757 553.218C611.757 553.218 608.036 608.615 607.24 610.758C606.443 612.901 622.66 660.783 622.66 660.783Z" fill="white"/>
<path d="M624.267 660.783C624.267 660.783 626.917 664.78 624.267 666.647C621.617 668.515 624.513 673.033 624.513 673.033C624.513 673.033 617.911 676.971 620.806 680.475C623.702 683.979 621.878 699.805 621.878 699.805L613.885 713.038C613.885 713.038 614.363 721.567 614.407 733.092C614.407 751.075 613.35 776.356 607.5 787.881L608.297 882.444C608.297 882.444 580.265 892.666 556.867 889.553L553.406 737.812C553.406 737.812 558.474 651.763 560.342 635.257C561.436 626.687 561.876 618.047 561.659 609.411C561.659 609.411 560.863 583.581 558.199 571.592C558.199 571.592 555.303 519.655 554.999 505.278C554.869 498.4 555.245 478.332 555.636 459.249C556.085 438.384 556.592 418.707 556.592 418.707L549.613 376.327C549.613 376.327 556.592 376.327 558.199 378.484C558.906 379.158 559.682 379.755 560.515 380.265C569.637 386.433 601.882 405.401 601.882 405.401C601.882 405.401 619.706 412.495 623.977 422.66C628.249 432.824 631.217 440.035 633.302 442.931C635.387 445.826 636.487 459.437 636.487 459.437C636.487 459.437 642.627 484.486 647.419 488.728C652.212 492.97 655.672 519.902 655.672 519.902L613.321 553.204C613.321 553.204 609.6 608.601 608.789 610.744C607.978 612.886 624.267 660.783 624.267 660.783Z" fill="white"/>
<path opacity="0.1" d="M573.547 431L577.369 442.149L557.243 462.419C557.692 441.57 558.199 421.878 558.199 421.878L551.22 379.498C551.22 379.498 558.199 379.498 559.806 381.655C560.511 382.327 561.288 382.92 562.123 383.421L579.237 432.795L573.547 431Z" fill="black"/>
<path d="M571.939 427.8L575.776 438.949L555.65 459.22C556.099 438.355 556.606 418.678 556.606 418.678L549.613 376.298C549.613 376.298 556.606 376.298 558.199 378.455C558.909 379.125 559.685 379.722 560.515 380.236L577.644 429.595L571.939 427.8Z" fill="white"/>
<path opacity="0.1" d="M571.939 317.483C571.951 322.701 571.13 327.887 569.507 332.846C569.233 332.889 568.954 332.876 568.685 332.809C568.417 332.742 568.164 332.621 567.943 332.455C567.567 319.424 561.153 307.189 553.261 296.778C551.046 293.635 548.36 290.852 545.298 288.525C542.202 286.2 538.351 285.111 534.496 285.47C530.153 286.064 526.316 289.018 521.929 289.394C516.137 289.872 510.953 285.861 505.205 285.658C502.868 285.681 500.563 286.201 498.443 287.185C496.324 288.168 494.438 289.593 492.912 291.363C489.893 294.936 487.649 299.097 486.324 303.584C484.048 310.386 482.808 317.493 482.647 324.665C482.574 328.719 482.183 333.801 478.419 335.278C478.702 332.297 478.363 329.289 477.424 326.445C476.484 323.601 474.964 320.983 472.96 318.758L472.873 318.671C472.873 318.265 472.873 317.889 472.873 317.483C472.761 310.906 473.959 304.373 476.398 298.264C478.838 292.155 482.469 286.593 487.08 281.902C491.691 277.211 497.191 273.485 503.257 270.942C509.324 268.399 515.836 267.089 522.414 267.089C528.992 267.089 535.504 268.399 541.57 270.942C547.637 273.485 553.136 277.211 557.747 281.902C562.359 286.593 565.99 292.155 568.429 298.264C570.868 304.373 572.066 310.906 571.954 317.483H571.939Z" fill="black"/>
<path d="M542.923 238.818C535.399 235.279 526.842 234.61 518.859 236.936C514.848 238.123 511.069 240.049 507.001 241.019C498.313 243.119 488.178 240.846 480.721 245.928C476.58 248.824 474.09 253.399 471.773 257.844L465.981 268.877C462.825 274.915 459.639 281.054 458.322 287.7C457.004 294.346 457.801 301.788 462.014 307.131C465.084 311.026 469.616 313.473 472.946 317.136C474.941 319.364 476.454 321.98 477.391 324.821C478.328 327.661 478.668 330.664 478.39 333.642C482.169 332.194 482.531 327.098 482.618 323.043C482.779 315.872 484.019 308.765 486.296 301.962C487.617 297.474 489.861 293.312 492.884 289.741C494.41 287.973 496.296 286.549 498.416 285.566C500.535 284.582 502.84 284.061 505.176 284.037C510.968 284.239 516.166 288.236 521.9 287.758C526.243 287.396 530.095 284.428 534.468 283.849C538.323 283.484 542.176 284.573 545.269 286.904C548.33 289.226 551.012 292.011 553.218 295.157C561.124 305.567 567.538 317.773 567.914 330.833C569.55 332.035 571.911 330.471 572.721 328.618C573.532 326.765 573.561 324.593 574.589 322.826C575.776 320.785 578.05 319.699 579.831 318.164C584.348 314.269 585.477 307.71 585.304 301.759C585.13 295.808 583.972 289.77 585.101 283.921C585.782 280.33 587.316 276.971 588.156 273.424C588.996 269.876 589.097 265.894 587.114 262.839C584.218 258.351 578.122 257.468 572.808 257.048C566.77 256.526 561.37 257.192 557.518 252.11C555.71 249.458 553.676 246.968 551.437 244.668C550.67 243.915 542.923 239.137 542.923 238.818Z" fill="#512E4E"/>
<path opacity="0.1" d="M385.55 544.154L370.419 516.18L365.627 559.343C365.627 559.343 368.291 578.513 367.755 581.452C367.219 584.392 378.672 610.744 378.672 610.744C378.672 610.744 416.506 678.129 431.955 681.604L484.153 644.306L470.311 626.728C470.311 626.728 465.518 624.861 464.316 626.728C464.316 626.728 438.616 582.509 435.952 579.309C433.287 576.109 433.809 569.724 433.809 569.724C433.809 569.724 429.812 565.467 431.145 561.471C432.477 557.475 423.427 543.618 423.427 543.618L431.68 535.901L385.55 544.154Z" fill="black"/>
<path d="M371.216 512.995L367.219 516.18L362.427 559.343C362.427 559.343 365.091 578.513 364.555 581.452C364.019 584.391 375.487 610.743 375.487 610.743C375.487 610.743 413.306 678.129 428.756 681.604L480.967 644.306L467.111 626.728C467.111 626.728 462.318 624.861 461.116 626.728C461.116 626.728 435.416 582.509 432.752 579.309C430.088 576.109 430.623 569.724 430.623 569.724C430.623 569.724 426.627 565.467 427.959 561.471C429.291 557.475 420.227 543.618 420.227 543.618L428.48 535.901L371.216 512.995Z" fill="white"/>
<path opacity="0.1" d="M619.199 682.082C622.095 685.6 620.271 701.397 620.271 701.397L612.278 714.631C612.278 714.631 612.756 723.174 612.785 734.685L599.348 738.884C598.134 739.263 596.847 739.346 595.594 739.127C594.341 738.907 593.158 738.391 592.145 737.622C591.132 736.852 590.317 735.852 589.77 734.704C589.222 733.555 588.957 732.293 588.996 731.021L591.313 656.295L622.66 668.283C619.996 670.137 622.92 674.683 622.92 674.683C622.92 674.683 616.275 678.564 619.199 682.082Z" fill="black"/>
<path d="M620.806 680.475C623.702 683.993 621.878 699.805 621.878 699.805L613.885 713.039C613.885 713.039 614.363 721.567 614.407 733.092L600.724 737.363C599.535 737.733 598.274 737.813 597.048 737.597C595.821 737.381 594.664 736.875 593.673 736.122C592.681 735.368 591.884 734.389 591.348 733.265C590.811 732.141 590.551 730.905 590.589 729.661L592.92 654.702L624.281 666.691C621.603 668.544 624.528 673.076 624.528 673.076C624.528 673.076 617.911 676.971 620.806 680.475Z" fill="white"/>
<path d="M631.188 644.856C631.188 644.856 629.06 658.452 623.731 659.248C618.403 660.045 616.014 681.242 610.7 680.489C605.386 679.736 608.905 660.783 609.093 657.106C609.281 653.428 603.301 638.196 607.775 634.735C612.249 631.275 626.41 634.735 626.41 634.735L631.188 644.856Z" fill="#CF6F80"/>
<path opacity="0.1" d="M642.525 540.158L652.574 519.887C652.574 519.887 656.57 535.336 656.57 543.589C656.57 551.842 662.159 552.653 662.159 552.653C662.159 552.653 668.284 559.893 665.055 565.163C661.826 570.434 660.523 583.552 660.523 583.552C660.523 583.552 661.58 608.586 656.787 612.046C651.995 615.507 650.995 623.775 650.995 623.775C650.995 623.775 642.192 639.484 642.467 643.22C642.742 646.956 630.218 672.251 630.218 672.251C630.218 672.251 636.343 640.816 600.652 627.235C600.652 627.235 600.376 616.564 603.041 613.639C605.705 610.714 609.86 609.382 607.254 594.599C604.648 579.816 606.501 562.151 606.501 558.604C606.501 555.057 614.494 532.933 614.494 532.933L642.525 540.158Z" fill="black"/>
<path d="M646.869 516.991L655.643 519.887C655.643 519.887 659.654 535.336 659.654 543.589C659.654 551.842 665.243 552.653 665.243 552.653C665.243 552.653 671.368 559.893 668.139 565.163C664.91 570.434 663.621 583.552 663.621 583.552C663.621 583.552 664.678 608.586 659.886 612.047C655.093 615.507 654.022 623.775 654.022 623.775C654.022 623.775 645.233 639.485 645.508 643.22C645.783 646.956 633.244 672.251 633.244 672.251C633.244 672.251 639.383 640.817 603.678 627.235C603.678 627.235 603.417 616.564 606.081 613.639C608.745 610.715 612.901 609.382 610.295 594.599C607.689 579.816 609.542 562.152 609.542 558.604C609.542 555.057 617.534 532.933 617.534 532.933L646.869 516.991Z" fill="white"/>
<path opacity="0.1" d="M453.066 1042.39C453.066 1042.39 467.053 1033.61 476.233 1039.99C485.412 1046.38 453.066 1042.39 453.066 1042.39Z" fill="black"/>
<path opacity="0.1" d="M561.746 1015.22C561.746 1015.22 574.126 1013.62 584.522 1024.82C594.918 1036.01 561.746 1015.22 561.746 1015.22Z" fill="black"/>
<g opacity="0.1">
<path d="M579.86 314.993C578.079 316.528 575.791 317.628 574.604 319.67C573.59 321.422 573.561 323.579 572.75 325.461C571.939 327.344 569.579 328.879 567.943 327.691C567.567 314.66 561.138 302.425 553.247 292C551.041 288.854 548.359 286.07 545.298 283.747C542.199 281.417 538.342 280.328 534.482 280.692C530.138 281.286 526.316 284.239 521.929 284.601C516.137 285.094 510.939 281.083 505.191 280.88C502.855 280.904 500.551 281.426 498.433 282.412C496.316 283.399 494.433 284.826 492.912 286.6C489.89 290.165 487.646 294.322 486.324 298.805C484.049 305.609 482.809 312.715 482.647 319.887C482.56 323.927 482.183 328.965 478.448 330.471C478.535 331.541 478.535 332.616 478.448 333.686C482.212 332.238 482.589 327.141 482.676 323.087C482.837 315.915 484.077 308.808 486.353 302.005C487.675 297.518 489.919 293.355 492.941 289.785C494.465 288.016 496.349 286.593 498.466 285.609C500.583 284.626 502.885 284.104 505.22 284.08C511.011 284.283 516.224 288.279 521.958 287.801C526.301 287.439 530.153 284.471 534.511 283.892C538.371 283.528 542.228 284.617 545.327 286.947C548.388 289.27 551.07 292.054 553.276 295.2C561.167 305.611 567.596 317.816 567.972 330.877C569.608 332.078 571.968 330.515 572.779 328.661C573.59 326.808 573.619 324.636 574.633 322.87C575.82 320.828 578.108 319.742 579.888 318.207C584.406 314.313 585.535 307.754 585.362 301.803C585.362 301.614 585.362 301.426 585.362 301.252C585.086 306.407 583.711 311.663 579.86 314.993Z" fill="black"/>
<path d="M472.975 313.965C469.645 310.302 465.098 307.855 462.043 303.974C459.471 300.539 458.001 296.404 457.83 292.116C457.374 297.475 458.87 302.817 462.043 307.16C465.098 311.055 469.645 313.502 472.975 317.165C476.172 320.748 478.092 325.29 478.433 330.08C478.655 327.165 478.286 324.235 477.348 321.466C476.41 318.697 474.922 316.146 472.975 313.965Z" fill="black"/>
<path d="M588.185 270.253C587.331 273.8 585.81 277.174 585.115 280.75C584.704 283.14 584.553 285.567 584.667 287.99C584.715 286.61 584.865 285.235 585.115 283.877C585.81 280.287 587.331 276.927 588.185 273.38C588.683 271.424 588.844 269.396 588.663 267.386C588.573 268.352 588.413 269.31 588.185 270.253Z" fill="black"/>
</g>
<path opacity="0.1" d="M192.181 1101.27C270.1 1101.27 333.266 1091.12 333.266 1078.61C333.266 1066.09 270.1 1055.95 192.181 1055.95C114.262 1055.95 51.0968 1066.09 51.0968 1078.61C51.0968 1091.12 114.262 1101.27 192.181 1101.27Z" fill="#4C0ACE"/>
<path d="M196.728 644.523H187.649V848.925H196.728V644.523Z" fill="#535461"/>
<path d="M253.775 848.302L253.211 857.511L252.4 870.542L252.067 875.958L251.271 888.989L250.923 894.404L250.112 907.435L240.961 1055.22C240.564 1061.58 237.758 1067.55 233.115 1071.91C228.472 1076.28 222.342 1078.71 215.97 1078.71H168.392C162.022 1078.71 155.893 1076.28 151.253 1071.91C146.612 1067.55 143.81 1061.58 143.416 1055.22L134.308 907.334L133.497 894.303L133.164 888.887L132.354 875.856L132.021 870.441L131.21 857.41L130.631 848.201C130.53 846.429 130.793 844.654 131.402 842.987C132.012 841.32 132.956 839.795 134.176 838.505C135.396 837.216 136.867 836.19 138.498 835.489C140.129 834.789 141.887 834.429 143.662 834.431H240.976C242.744 834.447 244.491 834.824 246.108 835.541C247.725 836.257 249.178 837.297 250.377 838.597C251.577 839.897 252.497 841.429 253.081 843.098C253.666 844.767 253.902 846.538 253.775 848.302Z" fill="#3F3D56"/>
<path d="M253.211 857.511L252.4 870.499H131.963L131.152 857.511H253.211Z" fill="#9D9CB5"/>
<path d="M252.067 875.914L251.271 888.916H133.106L132.296 875.914H252.067Z" fill="#9D9CB5"/>
<path d="M250.923 894.346L250.127 907.334H134.25L133.44 894.346H250.923Z" fill="#9D9CB5"/>
<path d="M117.295 721.132C170.159 759.386 192.225 819.214 192.225 819.214C192.225 819.214 128.517 817.027 75.6389 778.774C22.7612 740.52 0.738464 680.707 0.738464 680.707C0.738464 680.707 64.4176 682.878 117.295 721.132Z" fill="#4C0ACE"/>
<path d="M0.695007 680.707C0.695007 680.707 66.8356 717.411 88.0475 747.803C109.259 778.194 192.225 819.214 192.225 819.214" stroke="#535461" stroke-width="2" stroke-miterlimit="10"/>
<path d="M151.423 644.074C180.193 664.881 192.225 697.444 192.225 697.444C192.225 697.444 157.547 696.257 128.763 675.451C99.9783 654.644 87.9751 622.066 87.9751 622.066C87.9751 622.066 122.638 623.253 151.423 644.074Z" fill="#4C0ACE"/>
<path d="M87.9751 622.066C87.9751 622.066 123.97 642.047 135.51 658.582C147.05 675.118 192.225 697.444 192.225 697.444" stroke="#535461" stroke-width="2" stroke-miterlimit="10"/>
<path d="M233.997 695.794C200.941 732.122 193.948 779.599 193.948 779.599C193.948 779.599 240.556 768.16 273.583 731.818C306.61 695.475 313.632 648.013 313.632 648.013C313.632 648.013 267.053 659.466 233.997 695.794Z" fill="#4C0ACE"/>
<path d="M313.661 648.027C313.661 648.027 270.6 685.268 259.654 710.924C248.708 736.581 193.948 779.599 193.948 779.599" stroke="#535461" stroke-width="2" stroke-miterlimit="10"/>
<path d="M1447.43 683.009C1447.43 683.009 1423.53 564.077 1432.68 549.28C1432.68 549.28 1433.01 535.525 1432.46 517.99C1432.46 517.324 1432.46 516.658 1432.46 515.978C1434.07 517.051 1435.75 518.018 1437.49 518.874C1445.92 523.205 1455.6 524.455 1464.85 522.406L1457.61 514.342C1455.87 512.416 1454.06 510.331 1453.69 507.783C1453.31 505.234 1454.35 502.961 1455.25 500.688C1462.13 483.313 1462.49 461.464 1449.24 448.201C1438.05 437.052 1435.33 422.66 1423.18 412.481C1414.31 405.024 1409.43 394.093 1404.82 383.523C1400.93 374.589 1397 365.583 1394.77 356.114C1393.04 348.715 1392.34 341.056 1389.95 333.83C1387.56 326.605 1383.09 319.583 1376.09 316.354C1373.6 315.21 1370.84 314.559 1368.57 313.038C1365.58 311.026 1363.79 307.754 1361.63 304.887C1350.67 290.408 1313.96 298.936 1296.59 304.814C1291.87 306.295 1287.49 308.718 1283.73 311.938L1283.89 311.677C1284.02 311.46 1284.18 311.243 1284.33 311.026C1282.42 312.564 1280.78 314.397 1279.46 316.456C1276.93 320.466 1275.87 325.143 1273.76 329.487C1271.21 334.627 1257.03 348.976 1263.13 354.753C1263.56 355.141 1264.05 355.454 1264.58 355.679C1266.87 356.632 1269.38 356.884 1271.82 356.403L1271.56 357.026C1269.47 362.123 1268.41 367.577 1268.41 373.083C1268.41 396.873 1288.03 416.159 1312.26 416.159C1316.81 416.163 1321.34 415.465 1325.68 414.088C1325.78 414.638 1325.87 415.189 1325.97 415.739C1325.97 415.956 1326.04 416.173 1326.07 416.39L1325.3 417.462C1325.26 417.396 1325.22 417.333 1325.17 417.274L1302.44 449.041C1298.96 451.488 1278.95 465.967 1277.83 476.826C1276.64 488.714 1275.45 502.628 1275.45 502.628L1275.29 505.611C1274.3 506.441 1273.14 507.046 1271.89 507.383C1270.64 507.72 1269.33 507.783 1268.05 507.565C1260.96 506.407 1260.96 533.628 1260.96 533.628C1260.96 533.628 1256.24 537.971 1252.99 534.207C1249.75 530.442 1241.18 543.198 1241.18 543.198L1187.46 545.515L1186.23 545.588L1183.33 536.625C1183.02 535.68 1182.35 534.895 1181.46 534.443C1180.58 533.99 1179.55 533.905 1178.6 534.207C1178.38 534.281 1178.16 534.373 1177.95 534.482L1177.75 534.598L1177.37 534.858L1177.18 535.032C1177.08 535.126 1176.98 535.228 1176.89 535.336L1176.72 535.539L1176.63 535.626C1176.3 536.088 1176.07 536.622 1175.98 537.186C1175.89 537.749 1175.94 538.325 1176.11 538.869L1178.6 546.558C1168.23 548.643 1157.63 554.521 1166.28 570.709L1122.46 562.615L1136.64 574.517L1209.82 589.618C1208.85 591.356 1209.48 593.875 1212.51 597.423C1225.54 612.727 1249.29 616.883 1258.84 617.954C1261.37 623.599 1264.52 628.942 1268.24 633.881L1267.41 649.128C1267.41 649.128 1243.22 765.337 1238.79 771.23C1241.03 768.696 1243.07 766 1244.91 763.165C1237.89 787.041 1228.07 819.721 1225.5 824.615C1221.36 832.433 1217.52 864.07 1222.24 866.097C1223.69 866.72 1227.83 866.416 1233.74 865.967V868.588L1233.48 967.9C1233.48 967.9 1234.66 1028.81 1231.41 1034.62C1228.15 1040.43 1227.28 1052.6 1227.28 1052.6C1227.28 1052.6 1214.25 1076.62 1203.92 1086.28C1203.85 1086.36 1203.78 1086.42 1203.69 1086.48L1203.37 1084.23C1203.37 1084.23 1190.96 1099.89 1163.51 1099.01C1163.51 1099.01 1146.99 1109.75 1171.49 1110.33C1195.99 1110.91 1227.28 1109.46 1227.28 1109.46C1227.28 1109.46 1249.13 1076.16 1267.43 1080.5V1105.74H1273.03V1080.1C1275.63 1078.39 1277.86 1076.17 1279.57 1073.57C1281.28 1070.98 1282.45 1068.06 1283.01 1065C1283.49 1061.84 1283.14 1058.62 1281.99 1055.64C1280.84 1052.66 1278.94 1050.03 1276.46 1048.01C1275.35 1047.01 1274.46 1045.78 1273.85 1044.42C1273.23 1043.05 1272.9 1041.58 1272.89 1040.08L1272.68 1040.25C1272.68 1039.75 1272.55 1039.22 1272.5 1038.69C1270.89 1025.66 1268.88 998.769 1275.99 978.875C1285.73 951.596 1288.68 913.603 1281.59 890.987C1279.3 883.757 1277.42 876.405 1275.96 868.964C1275.78 868.023 1275.62 867.125 1275.48 866.285C1280.33 866.942 1285.13 867.909 1289.86 869.181C1306.29 873.713 1342.24 874.553 1372.94 874.307C1373.01 875.147 1373.1 876.03 1373.2 876.913C1373.75 883.052 1374.89 889.124 1376.62 895.041C1380.47 906.624 1382.23 957.692 1382.23 957.692C1382.23 957.692 1387.2 999.681 1384.49 1016.77C1383.04 1026.27 1381.6 1035.81 1380.77 1045.39V1045.58C1380.77 1045.58 1372.63 1068.75 1366.68 1081.33C1366.54 1081.65 1366.38 1081.97 1366.23 1082.27C1364.65 1082.41 1363.09 1082.76 1361.59 1083.3C1361.59 1083.3 1353.61 1099.23 1345.66 1101.86C1337.71 1104.5 1340.35 1113.17 1358.34 1109.98C1376.34 1106.8 1403.52 1104.19 1403.52 1104.19L1404.69 1087.95L1410.22 1081.03L1408.77 1097.23L1414.67 1096.07L1413.89 1076.36L1422.93 1065.04C1422.93 1065.04 1433.87 1055.31 1417.62 1036.17V1036.59C1417.45 1036.31 1417.29 1036.02 1417.1 1035.75V1035.66C1414.41 1031.49 1412.26 1023.72 1416.19 1009.92C1423.28 984.985 1427.41 962.354 1427.41 962.354C1427.41 962.354 1443.25 901.73 1424.21 873.047H1425.05C1423.1 869.011 1421.72 864.722 1420.95 860.306C1420.85 859.784 1420.77 859.249 1420.69 858.698C1434.78 857.888 1448.61 855.339 1459.89 849.837C1459.84 849.779 1453.05 705.915 1447.43 683.009ZM1268.57 582.668V582.958L1265.68 583.103L1268.57 582.668ZM1258.64 584.044C1258.16 584.15 1257.72 584.362 1257.34 584.667C1256.09 586.428 1255.31 588.475 1255.06 590.618L1250.55 589.604C1250.55 589.604 1247.38 588.923 1242.81 588.156L1240.66 585.984C1246.59 585.492 1252.76 584.768 1258.64 584.044Z" fill="url(#paint1_linear_129_2)"/>
<path d="M1408.11 1076.57L1406.39 1097.08L1412.16 1095.92L1411.29 1073.67L1408.11 1076.57Z" fill="#1D2366"/>
<path d="M1276.3 979.15C1269.34 998.986 1271.31 1025.76 1272.87 1038.76C1273.45 1043.57 1273.99 1046.49 1273.99 1046.49C1273.99 1046.49 1263.58 1070.21 1262.71 1071.11C1261.84 1072 1232.07 1090.18 1232.07 1090.18L1211.26 1102.32C1211.26 1102.32 1190.15 1093.07 1200.27 1089.89C1202.34 1089.06 1204.21 1087.79 1205.73 1086.17C1215.87 1076.54 1228.6 1052.6 1228.6 1052.6C1228.6 1052.6 1229.46 1040.45 1232.65 1034.68C1235.84 1028.9 1234.68 968.189 1234.68 968.189L1234.92 869.225V856.324L1274.52 856.613C1274.77 860.993 1275.34 865.348 1276.23 869.645C1277.65 877.06 1279.5 884.389 1281.75 891.595C1288.73 914.168 1285.83 951.973 1276.3 979.15Z" fill="#FFB0B1"/>
<path opacity="0.1" d="M1273.99 1046.49C1273.99 1046.49 1263.58 1070.21 1262.71 1071.11C1261.84 1072 1232.07 1090.18 1232.07 1090.18L1211.26 1102.32C1211.26 1102.32 1190.15 1093.07 1200.27 1089.89C1202.34 1089.06 1204.21 1087.79 1205.73 1086.17L1206.63 1092.49L1213.57 1092.2L1272.93 1038.79C1273.45 1043.57 1273.99 1046.49 1273.99 1046.49Z" fill="black"/>
<path d="M1273.26 1040.14L1213.57 1093.91L1206.63 1094.2L1205.18 1084.07C1205.18 1084.07 1193.05 1099.67 1166.09 1098.81C1166.09 1098.81 1149.9 1109.51 1173.89 1110.08C1197.89 1110.66 1228.52 1109.22 1228.52 1109.22C1228.52 1109.22 1249.92 1075.91 1267.83 1080.26V1105.41H1273.34V1080.03C1275.89 1078.3 1278.08 1076.08 1279.76 1073.49C1281.43 1070.91 1282.57 1068.01 1283.1 1064.97C1283.57 1061.84 1283.23 1058.64 1282.12 1055.68C1281 1052.71 1279.14 1050.09 1276.71 1048.06C1275.63 1047.04 1274.76 1045.81 1274.17 1044.45C1273.58 1043.09 1273.27 1041.62 1273.26 1040.14Z" fill="#1D2366"/>
<path d="M1413.61 1010.08C1409.76 1023.83 1411.86 1031.58 1414.49 1035.73V1035.82C1417.87 1040.95 1420.22 1046.69 1421.41 1052.72L1421.65 1054.02L1394.48 1093.62L1379.74 1099.41C1379.74 1099.41 1356.04 1091.32 1360.37 1089C1361.46 1088.44 1363.15 1085.43 1365.09 1081.27C1370.88 1068.75 1378.87 1045.64 1378.87 1045.64V1045.45C1379.71 1035.91 1381.05 1026.4 1382.52 1016.93C1385.17 999.884 1380.31 958.054 1380.31 958.054C1380.31 958.054 1378.57 907.189 1374.81 895.62C1373.11 889.738 1371.98 883.706 1371.43 877.608C1370.65 870.369 1370.48 864.403 1370.48 864.403C1370.48 864.403 1386.09 842.685 1414.7 866.141C1416.98 868.011 1419 870.195 1420.68 872.627C1440.44 900.746 1424.53 962.687 1424.53 962.687C1424.53 962.687 1420.55 985.217 1413.61 1010.08Z" fill="#FFB0B1"/>
<path opacity="0.1" d="M1421.69 1054.02L1394.53 1093.62L1379.79 1099.41C1379.79 1099.41 1356.08 1091.32 1360.41 1089C1361.5 1088.44 1363.19 1085.43 1365.13 1081.27C1375.17 1081.18 1380.37 1090.74 1380.37 1090.74L1393.08 1088.71C1393.08 1088.71 1409.85 1055.76 1413.61 1053.75C1417.37 1051.73 1414.19 1038.7 1414.19 1038.7V1035.39C1414.29 1035.5 1414.38 1035.63 1414.49 1035.75V1035.84C1417.87 1040.97 1420.22 1046.71 1421.41 1052.73L1421.69 1054.02Z" fill="black"/>
<path d="M1381.24 1091.59C1381.24 1091.59 1374 1078.3 1360.12 1083.21C1360.12 1083.21 1352.32 1099.14 1344.52 1101.72C1336.71 1104.29 1339.32 1112.98 1356.95 1109.81C1374.59 1106.64 1401.17 1104.02 1401.17 1104.02L1402.33 1087.82L1420.26 1064.98C1420.26 1064.98 1430.94 1055.3 1415.04 1036.23V1039.54C1415.04 1039.54 1418.23 1052.57 1414.46 1054.59C1410.7 1056.6 1393.99 1089.57 1393.99 1089.57L1381.24 1091.59Z" fill="#1D2366"/>
<path opacity="0.1" d="M1274.57 856.584C1274.82 860.964 1275.39 865.319 1276.28 869.615C1259.97 867.226 1244.84 868.414 1234.92 869.196V856.295L1274.57 856.584Z" fill="black"/>
<path opacity="0.1" d="M1422.28 876.232C1422.28 876.232 1399.12 877.362 1371.49 877.593C1370.71 870.354 1370.53 864.389 1370.53 864.389C1370.53 864.389 1386.14 842.67 1414.75 866.126C1417.04 867.997 1419.06 870.18 1420.73 872.613C1421.18 873.847 1421.7 875.056 1422.28 876.232Z" fill="black"/>
<path d="M1422.28 873.626C1422.28 873.626 1320.81 878.535 1289.89 869.862C1258.96 861.189 1228.31 868.703 1223.69 866.691C1219.07 864.678 1222.82 833.157 1226.87 825.353C1230.93 817.549 1253.17 738.623 1253.17 738.623L1274.57 627.047L1297.11 620.835L1298.7 620.387L1337.99 609.556L1366.77 601.607C1366.77 601.607 1424.01 825.063 1419.1 841.541C1417.32 847.85 1417.03 854.488 1418.26 860.928C1419.01 865.326 1420.36 869.599 1422.28 873.626Z" fill="#1D2366"/>
<path d="M1199.97 550.742C1199.97 550.742 1179.7 572.461 1195.05 584.565C1210.4 596.67 1220.49 585.724 1220.49 585.724L1199.97 550.742Z" fill="#C7DAF5"/>
<path opacity="0.1" d="M1199.97 550.742C1199.97 550.742 1179.7 572.461 1195.05 584.565C1210.4 596.67 1220.49 585.724 1220.49 585.724L1199.97 550.742Z" fill="black"/>
<path d="M1363.74 407.949C1363.74 407.949 1361.37 410.208 1357.79 413.538C1352.7 418.302 1345.15 425.266 1338.46 431.101C1329.2 439.166 1321.55 445.088 1324.29 440.035C1327.03 434.982 1326.5 426.178 1325.14 417.94C1325.04 417.389 1324.95 416.839 1324.85 416.304C1323.73 410.253 1322.23 404.276 1320.38 398.407C1320.38 398.407 1335.35 379.063 1343.63 371.433C1346.72 368.537 1348.87 367.35 1349 369.362C1349.15 372.07 1351.18 378.05 1353.7 384.392C1353.77 384.594 1353.84 384.782 1353.93 384.985C1355.61 389.329 1357.5 393.789 1359.17 397.64C1361.72 403.547 1363.74 407.949 1363.74 407.949Z" fill="#FFB0B1"/>
<path opacity="0.1" d="M1353.93 384.985C1352.52 392.552 1349.11 399.603 1344.04 405.4C1338.98 411.197 1332.45 415.528 1325.14 417.94C1323.99 411.33 1322.4 404.805 1320.38 398.407C1320.38 398.407 1348.57 361.992 1349 369.362C1349.11 372.157 1351.31 378.354 1353.93 384.985Z" fill="black"/>
<path opacity="0.1" d="M1322.33 427.67L1325.98 422.53C1325.98 422.53 1328.4 437.269 1337.29 430.768C1346.18 424.267 1346.62 479.693 1346.62 479.693L1337.07 622.356L1268.12 618.229L1270.08 549.294L1277.88 514.544L1297.18 464.027L1308.67 447.332L1322.33 427.67Z" fill="black"/>
<path d="M1346.62 480.576L1337.93 609.571L1337.02 623.239L1298.57 620.937L1297.13 620.85L1268.17 619.112L1270.12 550.163L1277.93 515.413L1297.23 464.895L1308.71 448.201L1322.38 428.466L1326.03 423.34C1326.03 423.34 1328.44 438.08 1337.33 431.579L1337.52 431.449C1346.21 425.947 1346.62 480.576 1346.62 480.576Z" fill="#1D2366"/>
<path d="M1278.9 503.338C1278.9 503.338 1275.44 510.577 1268.49 509.404C1261.54 508.231 1261.55 535.467 1261.55 535.467C1261.55 535.467 1256.93 539.81 1253.75 536.046C1250.56 532.281 1242.16 545.008 1242.16 545.008L1189.55 547.325C1189.55 547.325 1212.96 558.025 1208.37 590.4C1208.37 590.4 1287.86 585.478 1290.47 577.963C1293.07 570.448 1278.9 503.338 1278.9 503.338Z" fill="white"/>
<path opacity="0.03" d="M1278.9 503.338C1278.9 503.338 1275.44 510.577 1268.49 509.404C1261.54 508.231 1261.55 535.467 1261.55 535.467C1261.55 535.467 1256.93 539.81 1253.75 536.046C1250.56 532.281 1242.16 545.008 1242.16 545.008L1189.55 547.325C1189.55 547.325 1212.96 558.025 1208.37 590.4C1208.37 590.4 1287.86 585.478 1290.47 577.963C1293.07 570.448 1278.9 503.338 1278.9 503.338Z" fill="black"/>
<path d="M1125.98 564.338L1139.85 576.182L1254.04 600.174L1239.88 585.724L1125.98 564.338Z" fill="white"/>
<path d="M1322.55 432.23C1320.65 435.126 1315.22 449.953 1310.69 462.897C1306.91 473.684 1303.76 483.168 1303.76 483.168C1303.76 483.168 1296.39 531.152 1292.62 539.825C1288.86 548.498 1290.9 582.321 1290.9 582.321L1276.87 665.851C1276.87 665.851 1270.51 708.926 1260.7 734.656C1251.01 759.98 1240.22 771.853 1239.89 772.229C1244.23 766.35 1267.91 650.604 1267.91 650.604L1275.73 504.626C1275.73 504.626 1276.87 490.755 1278.03 478.897C1279.19 467.038 1302.64 450.851 1302.64 450.851L1325.26 418.693C1327.53 421.733 1326.01 427.032 1322.55 432.23Z" fill="white"/>
<path d="M1263.58 619.836C1263.58 619.836 1230.28 618.389 1214.15 599.015C1198.02 579.642 1251.43 591.284 1251.43 591.284L1265.32 594.469L1263.58 619.836Z" fill="#FFB0B1"/>
<path opacity="0.1" d="M1419.1 841.555C1417.32 847.865 1417.03 854.503 1418.26 860.943C1381.93 863.52 1343.07 853.703 1343.07 853.703C1335.83 860.363 1316.76 870.18 1316.76 870.18L1306.36 741.316C1299.72 723.941 1297.11 632.911 1297.11 632.911C1297.11 632.911 1297.7 628.147 1298.56 621.009C1298.56 620.835 1298.56 620.647 1298.63 620.473C1301.22 600.536 1306.36 563.107 1308.88 558.054C1312.36 551.104 1298.2 532.614 1298.2 532.614L1304.64 477.666L1305.42 471.035C1319 464.968 1329.41 445.595 1329.41 445.595L1337.41 431.593C1346.09 426.019 1346.54 480.649 1346.54 480.649L1337.86 609.643L1366.64 601.694C1366.64 601.694 1424.01 825.078 1419.1 841.555Z" fill="black"/>
<path d="M1456.38 850.46C1416.78 870.122 1344.81 851.908 1344.81 851.908C1337.57 858.568 1318.5 868.385 1318.5 868.385L1308.09 739.521C1301.46 722.146 1298.85 631.116 1298.85 631.116C1298.85 631.116 1307.22 563.194 1310.69 556.259C1311.71 554.232 1311.21 551.22 1310.01 547.977C1304.1 532.539 1301.93 515.924 1303.67 499.486L1306.45 475.871L1307.22 469.254C1320.81 463.172 1331.22 443.799 1331.22 443.799L1338.46 431.116L1351.78 407.746L1358.1 396.684L1359.17 397.654L1367.35 405.068C1367.35 405.068 1370.82 407.964 1376.04 412.307C1387.37 421.864 1406.96 438.688 1417.07 448.983C1425.96 458.047 1428.77 493.303 1429.58 519.844C1430.12 537.32 1429.8 551.017 1429.8 551.017C1420.84 565.771 1444.28 684.225 1444.28 684.225C1449.74 707.117 1456.38 850.46 1456.38 850.46Z" fill="white"/>
<path opacity="0.03" d="M1380.37 443.51C1380.37 443.51 1353.19 495.244 1356.35 514.906C1359.5 534.569 1368.48 556.823 1364.15 562.021C1362.66 563.991 1360.74 565.589 1358.53 566.692C1356.32 567.795 1353.89 568.372 1351.42 568.378C1347.08 568.667 1335.5 576.761 1335.5 577.63C1335.5 578.499 1324.8 578.499 1315.22 582.553C1305.65 586.607 1291.52 588.909 1291.52 588.909C1291.52 588.909 1264.01 588.04 1261.45 590.647C1258.89 593.253 1256.25 608.847 1261.74 621.284C1267.23 633.722 1273.32 643.003 1277.93 644.697C1282.53 646.391 1311.75 636.603 1335.45 634.287C1359.15 631.97 1384.88 613.191 1384.88 613.191C1384.88 613.191 1413.22 603.055 1418.19 586.013C1423.15 568.971 1412.12 475.306 1412.12 475.306C1412.12 475.306 1403.78 431.651 1380.37 443.51Z" fill="black"/>
<path opacity="0.03" d="M1376.89 439.166C1376.89 439.166 1349.71 490.914 1352.9 510.563C1356.08 530.211 1365.03 552.48 1360.69 557.692C1359.21 559.664 1357.29 561.264 1355.08 562.367C1352.88 563.47 1350.44 564.046 1347.98 564.048C1343.63 564.338 1332.05 572.432 1332.05 573.301C1332.05 574.169 1321.35 574.169 1311.78 578.209C1302.21 582.249 1288.08 584.565 1288.08 584.565C1288.08 584.565 1260.57 583.697 1258.02 586.303C1255.47 588.909 1252.81 604.517 1258.31 616.941C1263.81 629.364 1269.89 638.659 1274.5 640.353C1279.1 642.047 1308.32 632.259 1332.02 629.957C1355.72 627.655 1381.45 608.847 1381.45 608.847C1381.45 608.847 1409.77 598.711 1414.68 581.684C1419.59 564.656 1408.62 470.962 1408.62 470.962C1408.62 470.962 1400.3 427.322 1376.89 439.166Z" fill="black"/>
<path d="M1379.51 440.903C1379.51 440.903 1352.33 492.652 1355.52 512.3C1358.71 531.948 1367.65 554.217 1363.32 559.415C1361.84 561.391 1359.92 562.995 1357.71 564.101C1355.5 565.207 1353.07 565.784 1350.6 565.786C1346.25 566.075 1334.67 574.169 1334.67 575.023C1334.67 575.878 1323.98 575.892 1314.4 579.946C1304.81 584.001 1290.7 586.303 1290.7 586.303C1290.7 586.303 1263.19 585.434 1260.62 588.04C1258.06 590.646 1255.43 606.255 1260.91 618.678C1266.4 631.101 1272.5 640.397 1277.1 642.091C1281.71 643.785 1310.92 633.997 1334.63 631.68C1358.33 629.364 1384.06 610.584 1384.06 610.584C1384.06 610.584 1412.39 600.449 1417.36 583.407C1422.33 566.365 1411.37 472.7 1411.37 472.7C1411.37 472.7 1402.91 429.117 1379.51 440.903Z" fill="white"/>
<path opacity="0.1" d="M1378.92 579.7C1378.92 579.7 1357.2 575.357 1364.76 582.596C1372.32 589.836 1372.27 596.178 1381.52 595.888C1390.78 595.598 1378.92 579.7 1378.92 579.7Z" fill="black"/>
<path opacity="0.1" d="M1415.62 735.467C1415.62 735.467 1405.81 742.112 1424.59 757.431C1443.36 772.75 1415.62 735.467 1415.62 735.467Z" fill="black"/>
<path opacity="0.1" d="M1396.89 790.096C1396.89 790.965 1393.41 821.95 1406.41 829.697C1419.42 837.443 1396.89 790.096 1396.89 790.096Z" fill="black"/>
<path d="M1190.44 547.253C1179.96 547.615 1157.32 550.814 1169.06 572.721C1179.44 592.109 1196.89 579.15 1206.7 569.319C1204.31 560.153 1198.49 552.255 1190.44 547.253Z" fill="#FFB0B1"/>
<path opacity="0.1" d="M1376.04 413.19C1364.92 420.792 1355.59 427.206 1353.77 428.538C1348.79 432.23 1339.29 453.906 1333.16 464.968C1328.28 473.872 1312.43 476.16 1306.45 476.725L1307.22 470.108C1320.81 464.027 1331.22 444.653 1331.22 444.653L1358.1 397.538L1367.35 405.951C1367.35 405.951 1370.82 408.847 1376.04 413.19Z" fill="black"/>
<path d="M1376.04 412.322C1364.92 419.923 1355.59 426.338 1353.77 427.684C1348.79 431.362 1339.29 453.037 1333.16 464.099C1328.28 473.004 1312.43 475.291 1306.45 475.856L1307.22 469.239C1320.81 463.158 1331.22 443.785 1331.22 443.785L1358.1 396.67L1367.35 405.053C1367.35 405.053 1370.82 407.92 1376.04 412.322Z" fill="#DCE7FF"/>
<path d="M1354.64 375.429C1354.64 384.121 1352.01 392.609 1347.08 399.768C1341.26 408.233 1332.6 414.331 1322.66 416.956C1312.73 419.581 1302.19 418.558 1292.95 414.074C1283.7 409.59 1276.37 401.941 1272.29 392.515C1268.2 383.089 1267.63 372.511 1270.68 362.701C1273.73 352.89 1280.19 344.496 1288.89 339.042C1297.6 333.589 1307.97 331.437 1318.13 332.976C1328.29 334.516 1337.55 339.646 1344.25 347.435C1350.95 355.224 1354.64 365.156 1354.64 375.429Z" fill="#FFB0B1"/>
<path opacity="0.1" d="M1429.58 519.858C1423.7 516.241 1418.91 511.097 1415.72 504.974C1413.31 500.195 1411.7 494.679 1407.57 491.291C1403.85 488.25 1398.88 487.512 1394.25 486.151C1379.02 481.648 1366.25 467.748 1365.77 451.879C1365.54 444.407 1367.87 436.951 1366.81 429.552C1366.21 425.364 1364.55 421.401 1361.98 418.041C1360.7 416.434 1359.3 414.928 1357.79 413.538C1355.77 411.627 1353.64 409.773 1351.78 407.746C1350.62 406.491 1349.6 405.107 1348.74 403.62C1348.06 402.403 1347.5 401.117 1347.08 399.783C1344.18 390.922 1346.82 380.41 1343.63 371.447L1343.46 370.955C1342.26 367.769 1339.81 364.584 1336.41 364.338C1333 364.092 1330.09 366.915 1326.85 368.175C1320.06 370.81 1312.73 366.322 1307.07 361.746C1301.41 357.171 1295.03 351.944 1287.83 352.957C1283.07 353.638 1279.3 356.881 1274.91 358.561C1273.92 358.944 1272.9 359.24 1271.86 359.444C1275.57 350.185 1282.39 342.508 1291.15 337.731C1299.91 332.955 1310.06 331.378 1319.85 333.271C1329.65 335.164 1338.48 340.409 1344.82 348.105C1351.17 355.801 1354.64 365.467 1354.64 375.443C1354.64 378.456 1354.33 381.46 1353.7 384.406C1353.77 384.609 1353.84 384.797 1353.93 385C1355.61 389.343 1357.5 393.803 1359.17 397.654L1367.35 405.068C1367.35 405.068 1370.82 407.964 1376.04 412.307C1387.37 421.863 1406.96 438.688 1417.07 448.983C1425.96 458.076 1428.74 493.318 1429.58 519.858Z" fill="black"/>
<path d="M1274.41 332.108C1276.48 327.894 1277.51 323.174 1279.98 319.178C1283.62 313.386 1289.96 309.679 1296.47 307.435C1313.49 301.571 1349.44 293.057 1360.18 307.435C1362.3 310.331 1364.05 313.545 1366.97 315.543C1369.2 317.064 1371.9 317.715 1374.34 318.859C1381.19 322.073 1385.56 329.081 1387.9 336.234C1390.23 343.387 1390.92 351.061 1392.63 358.431C1394.82 367.885 1398.65 376.848 1402.48 385.753C1406.98 396.264 1411.76 407.167 1420.44 414.595C1432.3 424.73 1434.92 439.079 1445.93 450.199C1458.96 463.404 1458.54 485.195 1451.82 502.498C1450.94 504.771 1449.94 507.145 1450.29 509.563C1450.63 511.982 1452.43 514.182 1454.12 516.108L1461.25 524.144C1444.39 528.213 1425.32 519.409 1417.48 503.96C1415.06 499.182 1413.45 493.68 1409.31 490.277C1405.6 487.237 1400.62 486.513 1396 485.152C1380.77 480.634 1368 466.72 1367.52 450.851C1367.29 443.394 1369.62 435.937 1368.57 428.553C1367.98 424.337 1366.31 420.346 1363.72 416.97C1359.73 411.772 1353.72 408.282 1350.48 402.49C1344.99 392.804 1349.16 380.222 1345.21 369.826C1343.99 366.64 1341.56 363.455 1338.16 363.209C1334.76 362.963 1331.85 365.786 1328.59 367.046C1321.81 369.681 1314.49 365.207 1308.83 360.617C1303.16 356.027 1296.78 350.815 1289.57 351.843C1284.8 352.509 1281.05 355.752 1276.67 357.446C1273.42 358.691 1266.85 359.806 1264.01 357.069C1258.02 351.553 1271.9 337.262 1274.41 332.108Z" fill="#591D4B"/>
<path opacity="0.1" d="M1421.5 499.182C1419.07 494.404 1417.48 488.902 1413.34 485.514C1409.63 482.473 1404.65 481.735 1400.01 480.374C1384.8 475.871 1372.03 461.956 1371.53 446.087C1371.3 438.63 1373.63 431.159 1372.59 423.775C1371.98 419.586 1370.31 415.623 1367.74 412.264C1363.74 407.066 1357.74 403.576 1354.51 397.785C1349.02 388.113 1353.19 375.53 1349.22 365.12C1348.02 361.949 1345.57 358.764 1342.18 358.503C1338.8 358.242 1335.86 361.095 1332.61 362.354C1325.84 364.99 1318.5 360.501 1312.85 355.926C1307.2 351.35 1300.79 346.123 1293.59 347.137C1288.83 347.817 1285.06 351.061 1280.69 352.74C1277.45 353.985 1270.86 355.115 1268.02 352.378C1262.06 346.587 1275.94 332.325 1278.43 327.199C1280.5 322.971 1281.53 318.265 1284.02 314.269C1284.15 314.052 1284.3 313.835 1284.44 313.618C1282.58 315.161 1280.97 316.988 1279.68 319.033C1277.2 323.029 1276.17 327.72 1274.1 331.963C1271.6 337.088 1257.71 351.394 1263.69 357.142C1266.59 359.893 1273.11 358.764 1276.35 357.518C1280.69 355.824 1284.49 352.581 1289.25 351.915C1296.49 350.887 1302.86 356.114 1308.51 360.689C1314.15 365.265 1321.54 369.753 1328.28 367.118C1331.53 365.858 1334.37 363.02 1337.84 363.281C1341.32 363.542 1343.63 366.713 1344.89 369.898C1348.85 380.294 1344.68 392.876 1350.16 402.563C1353.41 408.253 1359.42 411.815 1363.4 417.042C1365.99 420.419 1367.66 424.41 1368.25 428.625C1369.3 436.01 1366.97 443.466 1367.2 450.923C1367.68 466.85 1380.45 480.707 1395.69 485.224C1400.28 486.585 1405.28 487.309 1408.99 490.35C1413.15 493.752 1414.78 499.254 1417.16 504.032C1425.01 519.482 1444.07 528.285 1460.93 524.216L1457.57 520.423C1442.96 520.64 1428.18 512.329 1421.5 499.182Z" fill="black"/>
<path opacity="0.1" d="M1321.68 433.099C1319.79 435.995 1314.36 450.822 1309.82 463.766C1305.58 462.115 1301.73 451.589 1301.73 451.589L1324.35 419.417C1326.66 422.602 1325.14 427.887 1321.68 433.099Z" fill="black"/>
<path d="M1322.55 432.231C1320.65 435.126 1315.22 449.953 1310.69 462.897C1306.45 461.261 1302.6 450.72 1302.6 450.72L1325.22 418.562C1327.53 421.733 1326.01 427.033 1322.55 432.231Z" fill="#DCE7FF"/>
<path d="M1191.05 580.149L1178.51 540.607C1178.36 540.144 1178.31 539.656 1178.35 539.171C1178.39 538.687 1178.53 538.215 1178.75 537.783C1178.97 537.352 1179.28 536.968 1179.65 536.655C1180.02 536.342 1180.45 536.105 1180.92 535.959C1181.85 535.668 1182.86 535.757 1183.73 536.207C1184.6 536.657 1185.25 537.432 1185.55 538.362L1198.09 577.861L1196.84 586.129L1191.05 580.149Z" fill="#BE8B87"/>
<path opacity="0.1" d="M1179.7 537.132C1180.64 536.836 1181.65 536.923 1182.52 537.373C1183.39 537.824 1184.05 538.601 1184.35 539.535L1196.89 579.034L1195.95 585.231L1196.86 586.187L1198.1 577.919L1185.49 538.42C1185.19 537.49 1184.54 536.715 1183.67 536.265C1182.8 535.815 1181.79 535.725 1180.86 536.017C1180.07 536.272 1179.4 536.781 1178.93 537.465C1179.18 537.333 1179.44 537.221 1179.7 537.132Z" fill="white"/>
<path d="M1191.05 580.149L1198.09 577.919L1197.06 584.696L1196.84 586.187L1194.79 584.044L1191.05 580.149Z" fill="#EFC8C4"/>
<path d="M1194.79 584.044C1194.91 583.889 1195.06 583.761 1195.24 583.668C1195.34 583.603 1195.46 583.569 1195.58 583.569C1195.7 583.569 1195.81 583.603 1195.92 583.668C1196.02 583.787 1196.1 583.918 1196.16 584.059C1196.26 584.218 1196.39 584.355 1196.54 584.457C1196.7 584.56 1196.88 584.627 1197.06 584.652L1196.84 586.1L1194.79 584.044Z" fill="#727A9C"/>
<path d="M1178.44 554.651C1178.44 554.651 1203.59 554.507 1197.67 565.207C1191.75 575.907 1182.49 577.195 1182.49 577.195L1178.44 554.651Z" fill="#FFB0B1"/>
<path d="M1022.02 74.4516H1020.94C977.731 74.4516 939.521 97.3141 917.541 131.05C895.562 97.3141 857.352 74.4516 814.146 74.4516H813.06C780.636 74.7606 749.643 87.8535 726.817 110.885C703.992 133.917 691.178 165.026 691.161 197.452C691.161 237.718 708.796 294.853 743.184 341.866C808.702 431.449 917.541 509.824 917.541 509.824C917.541 509.824 1026.38 431.463 1091.88 341.866C1126.29 294.853 1143.91 237.718 1143.91 197.452C1143.89 165.028 1131.08 133.921 1108.26 110.89C1085.43 87.859 1054.44 74.7644 1022.02 74.4516ZM1006.49 348.758C1001.57 348.74 996.766 347.234 992.717 344.438C988.668 341.642 985.559 337.687 983.798 333.092H957.967C956.266 333.081 954.611 332.54 953.233 331.543C951.854 330.546 950.822 329.144 950.279 327.532L942.344 303.627L917.237 391.356C916.748 393.045 915.725 394.529 914.32 395.587C912.916 396.644 911.206 397.217 909.448 397.22H908.941C907.106 397.131 905.358 396.416 903.988 395.193C902.617 393.97 901.708 392.314 901.412 390.502L875.538 234.88L856.628 326.967C856.194 328.717 855.187 330.27 853.767 331.381C852.348 332.491 850.597 333.093 848.795 333.092H812.409C811.318 333.138 810.229 332.963 809.208 332.578C808.186 332.192 807.254 331.604 806.465 330.848C805.677 330.093 805.05 329.186 804.622 328.182C804.193 327.178 803.972 326.097 803.972 325.005C803.972 323.914 804.193 322.833 804.622 321.829C805.05 320.825 805.677 319.918 806.465 319.162C807.254 318.407 808.186 317.819 809.208 317.433C810.229 317.048 811.318 316.873 812.409 316.919H842.424L869.21 193.108C869.65 191.277 870.712 189.656 872.214 188.522C873.717 187.388 875.567 186.811 877.448 186.89C879.329 186.968 881.124 187.698 882.526 188.953C883.929 190.209 884.852 191.913 885.137 193.774L911.562 352.523L934.062 274.032C934.531 272.379 935.521 270.921 936.886 269.878C938.251 268.834 939.917 268.259 941.635 268.24H941.794C943.496 268.241 945.154 268.778 946.532 269.777C947.91 270.775 948.937 272.183 949.468 273.8L963.817 316.962H983.479C984.877 312.715 987.422 308.937 990.831 306.044C994.241 303.151 998.384 301.257 1002.8 300.57C1007.22 299.884 1011.74 300.431 1015.87 302.152C1020 303.873 1023.57 306.701 1026.19 310.323C1028.81 313.945 1030.38 318.222 1030.72 322.68C1031.07 327.138 1030.18 331.605 1028.14 335.587C1026.11 339.569 1023.01 342.912 1019.2 345.246C1015.39 347.581 1011 348.816 1006.53 348.816L1006.49 348.758Z" fill="#4C0ACE"/>
</g>
<defs>
<linearGradient id="paint0_linear_129_2" x1="515.934" y1="1121.94" x2="515.934" y2="230.985" gradientUnits="userSpaceOnUse">
<stop stop-color="#808080" stop-opacity="0.25"/>
<stop offset="0.54" stop-color="#808080" stop-opacity="0.12"/>
<stop offset="1" stop-color="#808080" stop-opacity="0.1"/>
</linearGradient>
<linearGradient id="paint1_linear_129_2" x1="1293.61" y1="1110.68" x2="1293.61" y2="296.952" gradientUnits="userSpaceOnUse">
<stop stop-color="#808080" stop-opacity="0.25"/>
<stop offset="0.54" stop-color="#808080" stop-opacity="0.12"/>
<stop offset="1" stop-color="#808080" stop-opacity="0.1"/>
</linearGradient>
<clipPath id="clip0_129_2">
<rect width="1600" height="1133.34" fill="white"/>
</clipPath>
</defs>
</svg>
