<svg width="1600" height="949" viewBox="0 0 1600 949" fill="none" xmlns="http://www.w3.org/2000/svg">
<path d="M167.672 720.725L143.987 674.861L142.681 399.134C142.645 391.545 148.624 385.372 156.012 385.372H167.672V720.725Z" fill="#B9D2FF"/>
<path d="M187.043 945.995C187.043 945.995 33.4878 930.544 0 787.452C0 787.452 96.6767 790.231 121.639 823.371C121.639 823.371 69.7189 783.96 61.7314 700.209C61.7314 700.209 133.667 742.321 147.598 784.031C147.598 784.031 119.642 753.714 131.623 659.953L198.812 790.055L187.043 945.995Z" fill="#C4AFEE"/>
<path d="M186.184 947.86C177.709 946.445 162.248 943.277 143.72 936.733C162.063 903.32 157.902 750.581 155.869 697.867L167.672 720.725V922.639C167.672 934.623 175.497 944.731 186.184 947.86Z" fill="#B28BFF"/>
<path d="M729.149 948.854H193.186C179.095 948.854 167.672 937.116 167.672 922.64V262.293C167.672 247.817 179.095 236.08 193.186 236.08H729.149C743.245 236.08 754.662 247.817 754.662 262.293V922.64C754.662 937.116 743.245 948.854 729.149 948.854Z" fill="#D1DAF7"/>
<path d="M271.037 362.364H215.501C205.001 362.364 196.49 353.62 196.49 342.83C196.49 332.041 205.001 323.296 215.501 323.296H271.037V362.364Z" fill="white"/>
<path d="M271.037 323.296H326.573C337.072 323.296 345.584 332.041 345.584 342.83C345.584 353.62 337.072 362.364 326.573 362.364H271.037V323.296Z" fill="#A4C4FF"/>
<path d="M270.937 433.689H215.402C204.903 433.689 196.391 424.945 196.391 414.156C196.391 403.366 204.903 394.622 215.402 394.622H270.937V433.689Z" fill="white"/>
<path d="M270.938 394.622H326.473C336.973 394.622 345.485 403.366 345.485 414.156C345.485 424.945 336.973 433.689 326.473 433.689H270.938V394.622Z" fill="#A4C4FF"/>
<path d="M270.839 505.017H215.303C204.803 505.017 196.291 496.272 196.291 485.483C196.291 474.693 204.803 465.949 215.303 465.949H270.839V505.017Z" fill="white"/>
<path d="M270.839 465.949H326.374C336.874 465.949 345.386 474.693 345.386 485.483C345.386 496.272 336.874 505.017 326.374 505.017H270.839V465.949Z" fill="#A4C4FF"/>
<path d="M270.74 576.341H215.205C204.704 576.341 196.193 567.59 196.193 556.807C196.193 546.018 204.705 537.273 215.205 537.273H270.74V576.341Z" fill="white"/>
<path d="M270.74 537.273H326.276C336.775 537.273 345.287 546.018 345.287 556.807C345.287 567.59 336.775 576.341 326.276 576.341H270.74V537.273Z" fill="#A4C4FF"/>
<path d="M270.641 647.66H215.105C204.606 647.66 196.094 638.915 196.094 628.126C196.094 617.343 204.606 608.592 215.105 608.592H270.641V647.66Z" fill="white"/>
<path d="M270.641 608.592H326.176C336.676 608.592 345.188 617.343 345.188 628.126C345.188 638.915 336.676 647.66 326.176 647.66H270.641V608.592Z" fill="#A4C4FF"/>
<path d="M270.541 718.985H215.006C204.506 718.985 195.995 710.241 195.995 699.451C195.995 688.662 204.506 679.917 215.006 679.917H270.541V718.985Z" fill="white"/>
<path d="M270.542 679.917H326.078C336.577 679.917 345.089 688.662 345.089 699.451C345.089 710.241 336.577 718.985 326.078 718.985H270.542V679.917Z" fill="#A4C4FF"/>
<path d="M270.443 790.312H214.908C204.408 790.312 195.896 781.567 195.896 770.778C195.896 759.988 204.408 751.244 214.908 751.244H270.443V790.312Z" fill="white"/>
<path d="M270.443 751.244H325.978C336.479 751.244 344.99 759.988 344.99 770.778C344.99 781.567 336.479 790.312 325.978 790.312H270.443V751.244Z" fill="#A4C4FF"/>
<path d="M270.344 861.636H214.809C204.309 861.636 195.797 852.892 195.797 842.102C195.797 831.313 204.309 822.568 214.809 822.568H270.344V861.636Z" fill="white"/>
<path d="M270.344 822.568H325.88C336.379 822.568 344.891 831.313 344.891 842.102C344.891 852.892 336.379 861.636 325.88 861.636H270.344V822.568Z" fill="#A4C4FF"/>
<path d="M461.515 362.364H405.979C395.479 362.364 386.967 353.62 386.967 342.83C386.967 332.041 395.479 323.296 405.979 323.296H461.515V362.364Z" fill="white"/>
<path d="M461.515 323.296H517.053C527.548 323.296 536.065 332.041 536.065 342.83C536.065 353.62 527.548 362.364 517.053 362.364H461.515V323.296Z" fill="#A4C4FF"/>
<path d="M461.416 433.689H405.88C395.381 433.689 386.869 424.945 386.869 414.156C386.869 403.366 395.381 394.622 405.88 394.622H461.416V433.689Z" fill="white"/>
<path d="M461.416 394.622H516.951C527.452 394.622 535.963 403.366 535.963 414.156C535.963 424.945 527.452 433.689 516.951 433.689H461.416V394.622Z" fill="#A4C4FF"/>
<path d="M461.317 505.017H405.782C395.281 505.017 386.77 496.272 386.77 485.483C386.77 474.693 395.281 465.949 405.782 465.949H461.317V505.017Z" fill="white"/>
<path d="M461.317 465.949H516.851C527.352 465.949 535.862 474.693 535.862 485.483C535.862 496.272 527.352 505.017 516.851 505.017H461.317V465.949Z" fill="#A4C4FF"/>
<path d="M461.218 576.341H405.683C395.183 576.341 386.671 567.59 386.672 556.807C386.672 546.018 395.183 537.273 405.683 537.273H461.218V576.341Z" fill="white"/>
<path d="M461.218 537.273H516.756C527.251 537.273 535.768 546.018 535.768 556.807C535.768 567.59 527.251 576.341 516.756 576.341H461.218V537.273Z" fill="#A4C4FF"/>
<path d="M461.119 647.66H405.583C395.084 647.66 386.572 638.915 386.572 628.126C386.572 617.343 395.084 608.592 405.583 608.592H461.119V647.66Z" fill="white"/>
<path d="M461.119 608.592H516.655C527.156 608.592 535.667 617.343 535.667 628.126C535.667 638.915 527.156 647.66 516.655 647.66H461.119V608.592Z" fill="#A4C4FF"/>
<path d="M461.02 718.985H405.485C394.986 718.985 386.473 710.241 386.473 699.451C386.473 688.662 394.986 679.917 405.485 679.917H461.02V718.985Z" fill="white"/>
<path d="M461.02 679.917H516.554C527.055 679.917 535.566 688.662 535.566 699.451C535.566 710.241 527.055 718.985 516.554 718.985H461.02V679.917Z" fill="#A4C4FF"/>
<path d="M460.922 790.312H405.386C394.886 790.312 386.374 781.567 386.374 770.778C386.374 759.988 394.886 751.244 405.386 751.244H460.922V790.312Z" fill="white"/>
<path d="M460.922 751.244H516.459C526.954 751.244 535.471 759.988 535.471 770.778C535.471 781.567 526.954 790.312 516.459 790.312H460.922V751.244Z" fill="#A4C4FF"/>
<path d="M460.822 861.636H405.286C394.787 861.636 386.275 852.892 386.275 842.102C386.275 831.313 394.787 822.568 405.286 822.568H460.822V861.636Z" fill="white"/>
<path d="M460.822 822.568H516.358C526.859 822.568 535.37 831.313 535.37 842.102C535.37 852.892 526.859 861.636 516.358 861.636H460.822V822.568Z" fill="#A4C4FF"/>
<path d="M651.991 362.364H596.46C585.959 362.364 577.449 353.62 577.449 342.83C577.449 332.041 585.959 323.296 596.46 323.296H651.991V362.364Z" fill="white"/>
<path d="M651.991 323.296H707.528C718.029 323.296 726.54 332.041 726.54 342.83C726.54 353.62 718.029 362.364 707.528 362.364H651.991V323.296Z" fill="#A4C4FF"/>
<path d="M651.896 433.689H596.359C585.859 433.689 577.348 424.945 577.348 414.156C577.348 403.366 585.859 394.622 596.359 394.622H651.896V433.689Z" fill="white"/>
<path d="M651.896 394.622H707.426C717.927 394.622 726.438 403.366 726.438 414.156C726.438 424.945 717.927 433.689 707.426 433.689H651.896V394.622Z" fill="#A4C4FF"/>
<path d="M651.795 505.017H596.258C585.757 505.017 577.247 496.272 577.247 485.483C577.247 474.693 585.757 465.949 596.258 465.949H651.795V505.017Z" fill="white"/>
<path d="M651.795 465.949H707.332C717.833 465.949 726.343 474.693 726.343 485.483C726.343 496.272 717.833 505.017 707.332 505.017H651.795V465.949Z" fill="#A4C4FF"/>
<path d="M651.694 576.341H596.163C585.662 576.341 577.152 567.59 577.152 556.807C577.152 546.018 585.662 537.273 596.163 537.273H651.694V576.341Z" fill="white"/>
<path d="M651.694 537.273H707.231C717.732 537.273 726.242 546.018 726.242 556.807C726.242 567.59 717.732 576.341 707.231 576.341H651.694V537.273Z" fill="#A4C4FF"/>
<path d="M651.599 647.66H596.062C585.561 647.66 577.051 638.915 577.051 628.126C577.051 617.343 585.561 608.592 596.062 608.592H651.599V647.66Z" fill="white"/>
<path d="M651.599 608.592H707.13C717.631 608.592 726.141 617.343 726.141 628.126C726.141 638.915 717.631 647.66 707.13 647.66H651.599V608.592Z" fill="#A4C4FF"/>
<path d="M651.498 718.985H595.961C585.46 718.985 576.95 710.241 576.95 699.451C576.95 688.662 585.46 679.917 595.961 679.917H651.498V718.985Z" fill="white"/>
<path d="M651.498 679.917H707.035C717.536 679.917 726.047 688.662 726.047 699.451C726.047 710.241 717.536 718.985 707.035 718.985H651.498V679.917Z" fill="#A4C4FF"/>
<path d="M651.397 790.312H595.867C585.366 790.312 576.855 781.567 576.855 770.778C576.855 759.988 585.366 751.244 595.867 751.244H651.397V790.312Z" fill="white"/>
<path d="M651.397 751.244H706.934C717.435 751.244 725.945 759.988 725.945 770.778C725.945 781.567 717.435 790.312 706.934 790.312H651.397V751.244Z" fill="#A4C4FF"/>
<path d="M651.303 861.636H595.766C585.265 861.636 576.754 852.892 576.754 842.102C576.754 831.313 585.265 822.568 595.766 822.568H651.303V861.636Z" fill="white"/>
<path d="M651.302 822.568H706.832C717.333 822.568 725.844 831.313 725.844 842.102C725.844 852.892 717.333 861.636 706.832 861.636H651.302V822.568Z" fill="#A4C4FF"/>
<path d="M852.316 663.226C839.275 592.875 764.423 461.831 819.044 398.205C812.777 473.257 865.805 574.886 877.134 635.987L1021.74 590.784C1023.75 597.101 1025.84 602.976 1028.04 608.299L852.316 663.226Z" fill="#CCDFFE"/>
<path d="M943.69 946.225C811.064 943.849 860.675 754.106 851.848 669.758H1035.53C1026.75 753.704 1076.26 944.024 943.69 946.225Z" fill="#CCDFFE"/>
<path d="M1071.41 575.264L877.134 635.988C860.055 543.863 748.16 359.573 887.698 313.215C1028.6 271.707 1035.83 489.377 1071.41 575.264Z" fill="#4C0ACE"/>
<path d="M876.616 643.213H1079.68C1069.93 736.455 1124.78 946.231 978.15 948.854C831.593 946.426 886.327 736.013 876.616 643.213Z" fill="#9865FF"/>
<path d="M1103.28 651.62C1100.93 617.038 1053.67 603.489 1034.05 631.294C1022.67 606.456 984.221 615.278 984.676 643.213C983.993 664.869 1010.43 677.983 1026.55 664.473C1027.72 670.141 1030.07 675.36 1033.31 679.859C1010.74 718.712 1040.65 772.146 1085.13 770.887C1152.15 771.66 1166.46 671.303 1103.28 651.62Z" fill="white"/>
<path d="M377.739 597.03H229.893C226.488 597.03 223.728 594.193 223.728 590.694V543.538C223.728 540.045 226.488 537.208 229.893 537.208H377.739C381.144 537.208 383.905 540.045 383.905 543.538V590.694C383.905 594.193 381.144 597.03 377.739 597.03Z" fill="#38385C"/>
<mask id="mask0_166_2" style="mask-type:luminance" maskUnits="userSpaceOnUse" x="223" y="537" width="161" height="61">
<path d="M377.739 597.03H229.893C226.488 597.03 223.728 594.193 223.728 590.694V543.538C223.728 540.039 226.488 537.208 229.893 537.208H377.739C381.144 537.208 383.905 540.039 383.905 543.538V590.694C383.905 594.193 381.144 597.03 377.739 597.03Z" fill="white"/>
</mask>
<g mask="url(#mask0_166_2)">
<path d="M391.652 601.854H218.186V578.724H391.652V601.854Z" fill="#1A1A35"/>
</g>
<path d="M358.38 948.854H248.001C238 948.854 229.893 940.525 229.893 930.248V597.03H376.488V930.248C376.488 940.525 368.381 948.854 358.38 948.854Z" fill="#A4C4FF"/>
<mask id="mask1_166_2" style="mask-type:luminance" maskUnits="userSpaceOnUse" x="229" y="597" width="148" height="352">
<path d="M358.38 948.854H248C238 948.854 229.893 940.525 229.893 930.248V597.03H376.488V930.248C376.488 940.525 368.381 948.854 358.38 948.854Z" fill="white"/>
</mask>
<g mask="url(#mask1_166_2)">
<path d="M212.588 662.812L390.798 646.161V956.839H216.811L212.588 662.812Z" fill="#8F57FF"/>
</g>
<path d="M357.981 857.385H246.693C243.414 857.385 240.756 854.658 240.756 851.289V698.219C240.756 694.849 243.414 692.123 246.693 692.123H357.981C361.259 692.123 363.917 694.849 363.917 698.219V851.289C363.917 854.658 361.259 857.385 357.981 857.385Z" fill="#8F57FF"/>
<path d="M351.2 730.872H253.472V714.447H351.2V730.872Z" fill="#A4C4FF"/>
<path d="M351.2 757.028H253.472V740.603H351.2V757.028Z" fill="#A4C4FF"/>
<path d="M351.2 783.183H253.472V766.759H351.2V783.183Z" fill="#A4C4FF"/>
<path d="M351.2 809.338H253.472V792.914H351.2V809.338Z" fill="#A4C4FF"/>
<path d="M318.288 835.488H253.472V819.07H318.288V835.488Z" fill="#A4C4FF"/>
<path d="M471.877 947.867C447.511 947.867 423.925 943.394 423.329 914.388V861.636H460.822V822.568H423.329V790.311H460.921V751.243H423.329V718.985H461.02V679.917H423.328V647.66H461.118V608.592H428.909C432.349 598.588 437.788 587.455 446.35 576.341H461.217H516.756C527.25 576.341 535.767 567.59 535.767 556.807C535.767 546.017 527.25 537.273 516.756 537.273H487.749C501.207 524.796 511.259 513.721 518.462 504.944C528.211 504.106 535.862 495.712 535.862 485.481C535.862 475.081 527.958 466.584 517.981 465.98V433.664C528.002 433.112 535.963 424.588 535.963 414.156C535.963 413.624 535.944 413.091 535.9 412.572H574.428V947.269H510.785C508.397 947.055 505.781 946.977 503.007 946.977C498.401 946.977 493.34 947.198 488.065 947.425C482.798 947.646 477.317 947.867 471.877 947.867ZM460.822 822.568V861.636H516.358C526.858 861.636 535.369 852.892 535.369 842.102C535.369 831.313 526.858 822.568 516.358 822.568H460.822ZM460.921 751.243V790.311H516.459C526.953 790.311 535.47 781.566 535.47 770.777C535.47 759.987 526.953 751.243 516.459 751.243H460.921ZM461.02 679.917V718.985H516.553C527.054 718.985 535.565 710.241 535.565 699.451C535.565 688.662 527.054 679.917 516.553 679.917H461.02ZM461.118 608.592V647.66H516.655C527.155 647.66 535.666 638.915 535.666 628.126C535.666 617.343 527.155 608.592 516.655 608.592H461.118Z" fill="#96B3FA"/>
<path d="M517.982 433.664V424.018C517.982 417.695 522.973 412.573 529.127 412.573H535.9C535.945 413.092 535.964 413.624 535.964 414.157C535.964 424.589 528.003 433.113 517.982 433.664Z" fill="#7AA5FF"/>
<path d="M518.462 504.945C529.184 491.883 533.613 483.892 533.613 483.892C532.792 483.996 531.97 484.047 531.149 484.047C524.351 484.054 518.058 480.399 517.982 472.447V465.981C527.958 466.584 535.862 475.082 535.862 485.482C535.862 495.713 528.211 504.107 518.462 504.945Z" fill="#7AA5FF"/>
<path d="M461.218 576.341H446.35C450.522 570.92 455.434 565.513 461.218 560.241V576.341Z" fill="#B2C9FF"/>
<path d="M516.756 576.341H461.218V560.241C463.073 558.553 465.02 556.872 467.058 555.217C474.707 548.997 481.587 542.986 487.749 537.273H516.756C527.251 537.273 535.768 546.018 535.768 556.807C535.768 567.59 527.251 576.341 516.756 576.341Z" fill="#7AA5FF"/>
<path d="M461.119 647.66H423.329V646.076C423.329 646.076 421.593 629.885 428.91 608.592H461.119V647.66Z" fill="#B2C9FF"/>
<path d="M516.655 647.66H461.119V608.592H516.655C527.156 608.592 535.667 617.343 535.667 628.126C535.667 638.915 527.156 647.66 516.655 647.66Z" fill="#7AA5FF"/>
<path d="M461.02 718.985H423.329L423.328 679.917H461.02V718.985Z" fill="#B2C9FF"/>
<path d="M516.554 718.985H461.02V679.917H516.554C527.055 679.917 535.566 688.662 535.566 699.451C535.566 710.241 527.055 718.985 516.554 718.985Z" fill="#7AA5FF"/>
<path d="M423.329 790.312H460.921V751.244H423.329V790.312Z" fill="#B2C9FF"/>
<path d="M516.459 790.312H460.922V751.244H516.459C526.954 751.244 535.471 759.988 535.471 770.778C535.471 781.567 526.954 790.312 516.459 790.312Z" fill="#7AA5FF"/>
<path d="M423.329 861.636H460.822V822.568H423.329V861.636Z" fill="#B2C9FF"/>
<path d="M516.358 861.636H460.822V822.568H516.358C526.859 822.568 535.37 831.313 535.37 842.102C535.37 852.892 526.859 861.636 516.358 861.636Z" fill="#7AA5FF"/>
<path d="M755.206 570.057C728.846 545.44 678.199 523.959 682.812 480.042C645.225 480.042 593.523 480.042 555.942 480.042C560.573 523.92 509.825 545.512 483.542 570.057C457.338 590.993 442.011 623.186 442.011 657.294V922.387C442.011 937.006 453.544 948.854 467.771 948.854C500.879 948.055 611.201 949.432 642.293 948.854H770.976C785.204 948.854 796.735 937.006 796.735 922.387V657.294C796.735 623.186 781.407 590.993 755.206 570.057Z" fill="#8F57FF"/>
<mask id="mask2_166_2" style="mask-type:luminance" maskUnits="userSpaceOnUse" x="480" y="462" width="356" height="470">
<path d="M793.525 552.243C767.166 527.626 716.519 506.145 721.131 462.228C683.544 462.228 631.843 462.228 594.262 462.228C598.893 506.106 548.145 527.697 521.861 552.249C495.658 573.179 480.331 605.372 480.331 639.48V904.573C480.331 919.192 491.864 931.04 506.09 931.04C523.536 930.618 562.412 930.806 599.841 930.988C633.454 931.15 665.904 931.312 680.613 931.04H809.296C823.524 931.04 835.055 919.192 835.055 904.573V639.48C835.055 605.372 819.727 573.179 793.525 552.243Z" fill="white"/>
</mask>
<g mask="url(#mask2_166_2)">
<path d="M750.751 612.786L366.634 590.494V928.204H743.971L750.751 612.786Z" fill="#4C0ACE"/>
</g>
<path d="M796.735 826.231H442.011V662.813H796.735V826.231Z" fill="white"/>
<path d="M754.669 714.013H493.866V692.122H754.669V714.013Z" fill="#A4C4FF"/>
<path d="M754.669 748.816H493.866V726.925H754.669V748.816Z" fill="#A4C4FF"/>
<path d="M685.213 783.617H493.866V761.727H685.213V783.617Z" fill="#A4C4FF"/>
<path d="M754.668 761.117H731.177V736.987H708.697V761.117H685.212V784.221H708.697V808.351H731.177V784.221H754.668V761.117Z" fill="#3875FF"/>
<path d="M685.104 480.042H553.496C543.652 480.042 535.673 471.843 535.673 461.729V422.875C535.673 412.761 543.652 404.562 553.496 404.562H685.104C694.948 404.562 702.928 412.761 702.928 422.875C700.811 439.838 711.717 479.464 685.104 480.042Z" fill="#38385C"/>
<mask id="mask3_166_2" style="mask-type:luminance" maskUnits="userSpaceOnUse" x="535" y="404" width="169" height="77">
<path d="M685.104 480.042H553.496C543.652 480.042 535.673 471.843 535.673 461.729V422.875C535.673 412.761 543.652 404.562 553.496 404.562H685.104C694.948 404.562 702.928 412.761 702.928 422.875C700.811 439.838 711.717 479.464 685.104 480.042Z" fill="white"/>
</mask>
<g mask="url(#mask3_166_2)">
<path d="M711.395 486.027H528.697V458.444H711.395V486.027Z" fill="#1A1A35"/>
</g>
<path d="M1083.49 9.55505H1238.65C1260.93 9.55505 1279.17 28.2904 1279.17 51.1805C1279.15 90.7545 1287.73 144.487 1231.65 142.014V169.851C1231.65 178.751 1221.32 183.373 1214.97 177.303L1178.13 142.014H1083.49C1061.2 142.014 1042.97 123.278 1042.97 100.388C1043.28 65.5469 1034.28 11.3987 1083.49 9.55505Z" fill="#C1A4FF"/>
<path d="M1085.56 74.6991C1085.8 89.2213 1106.83 89.2213 1107.07 74.6991C1106.83 60.177 1085.8 60.177 1085.56 74.6991Z" fill="white"/>
<path d="M1149.26 74.6991C1149.5 89.2213 1170.53 89.2213 1170.77 74.6991C1170.53 60.177 1149.5 60.177 1149.26 74.6991Z" fill="white"/>
<path d="M1212.96 74.6991C1213.2 89.2213 1234.23 89.2213 1234.47 74.6991C1234.23 60.177 1213.2 60.177 1212.96 74.6991Z" fill="white"/>
<path d="M1297.65 948.854L1226.03 947.107L1232.21 929.937L1272.59 904.437V894.699H1254.46L1249.31 759.767C1126.22 721.861 1185.26 588.812 1198.6 509.326C1198.6 509.326 1184.38 521.401 1165.98 521.401C1160.68 521.401 1155.02 520.394 1149.25 517.804C1126.65 507.645 1078.55 418.194 1067.11 396.446L1068.84 396.427L1091.18 431.47C1091.18 431.476 1091.17 431.463 1091.18 431.47L1125.63 485.52C1134.28 499.484 1148.54 506.21 1163.58 506.21C1163.85 506.21 1164.11 506.203 1164.38 506.203C1165.36 506.255 1166.31 506.288 1167.25 506.288C1177.74 506.288 1185.98 502.854 1193.14 497.446C1202.19 491.779 1210.21 483.411 1215.87 472.485C1211.73 492.681 1183.04 635.053 1184.96 677.379C1186.99 722.27 1260.78 753.015 1260.78 753.015L1265.89 506.074H1297.65V768.654L1297.17 768.875L1297.65 769.394V948.854ZM1164.12 431.405C1164.12 431.405 1219.18 308.924 1222.26 305.12C1225.34 301.316 1274.76 279.14 1274.76 279.14C1274.76 279.14 1256.61 277.127 1253.17 267.909C1249.72 258.69 1259.37 187.845 1259.37 187.845L1297.65 185.541V287.936L1288.87 288.066C1288.87 288.066 1280.56 290.903 1270.24 295.252C1269.6 295.479 1231.36 309.164 1224.69 322.622L1164.12 431.405Z" fill="#CBDEFE"/>
<path d="M1440.88 945.659C1440.88 945.659 1432.08 935.675 1430.31 933.182C1428.55 930.689 1446.03 898.445 1446.03 898.445L1436.69 889.707L1419.31 898.445L1297.66 769.394V768.654L1319.91 758.76C1320.74 759.883 1321.6 760.974 1322.5 762.039L1429.09 884.844L1455.21 866.472L1481.82 896.094L1440.88 945.659Z" fill="#CBDEFE"/>
<path d="M1297.66 769.394L1297.17 768.876L1297.66 768.657V769.394Z" fill="#BCD4FE"/>
<path d="M1279.75 876.256L1284.94 921.465C1284.94 921.465 1294.31 925.503 1304.24 925.405C1314.18 925.302 1314.58 922.134 1314.58 922.134L1313.33 875.62L1279.75 876.256Z" fill="#FFB6A6"/>
<mask id="mask4_166_2" style="mask-type:luminance" maskUnits="userSpaceOnUse" x="1279" y="875" width="36" height="51">
<path d="M1279.75 876.256L1284.94 921.465C1284.94 921.465 1294.31 925.503 1304.24 925.405C1314.18 925.302 1314.58 922.134 1314.58 922.134L1313.33 875.62L1279.75 876.256Z" fill="white"/>
</mask>
<g mask="url(#mask4_166_2)">
<path d="M1323.62 900.509C1323.62 900.509 1299.63 906.092 1275.46 893.985L1274.86 872.796H1321.09L1323.62 900.509Z" fill="#FF8370"/>
</g>
<path d="M1314.58 922.134C1314.58 922.134 1288.72 930.437 1284.41 912.766L1249.33 930.326C1243.55 933.222 1240.12 939.538 1240.76 946.121L1311.8 947.108C1321.42 947.361 1314.87 927.911 1314.58 922.134Z" fill="#38385C"/>
<path d="M1430.31 865.857L1461.25 898.446C1461.25 898.446 1471.08 895.771 1478.89 889.467C1486.71 883.164 1485.15 880.398 1485.15 880.398L1456.55 844.317L1430.31 865.857Z" fill="#FFB6A6"/>
<mask id="mask5_166_2" style="mask-type:luminance" maskUnits="userSpaceOnUse" x="1430" y="844" width="56" height="55">
<path d="M1430.31 865.857L1461.25 898.446C1461.25 898.446 1471.08 895.771 1478.89 889.467C1486.71 883.164 1485.15 880.398 1485.15 880.398L1456.55 844.317L1430.31 865.857Z" fill="white"/>
</mask>
<g mask="url(#mask5_166_2)">
<path d="M1482.85 864.694C1482.85 864.694 1467.15 884.15 1440.81 889.694L1427.75 873.276L1464.39 844.316L1482.85 864.694Z" fill="#FF8370"/>
</g>
<path d="M1485.15 880.397C1485.15 880.397 1469.58 903.184 1455.67 891.875L1438.3 927.768C1435.43 933.689 1436.47 940.843 1440.88 945.659L1497.77 901.931C1505.59 896.237 1488.75 884.701 1485.15 880.397Z" fill="#38385C"/>
<path d="M1289.71 295.246L1286.67 269.513C1274.78 270.37 1260.36 270.921 1260.65 254.621L1266.71 194.292L1327.38 194.305C1325.89 219.48 1327.82 270.129 1330.64 295.246H1289.71Z" fill="#FFB6A6"/>
<mask id="mask6_166_2" style="mask-type:luminance" maskUnits="userSpaceOnUse" x="1260" y="194" width="71" height="102">
<path d="M1289.71 295.246L1286.67 269.513C1274.78 270.37 1260.36 270.921 1260.65 254.621L1266.71 194.292L1327.38 194.305C1325.89 219.48 1327.82 270.129 1330.64 295.246H1289.71Z" fill="white"/>
</mask>
<g mask="url(#mask6_166_2)">
<path d="M1286.67 269.513C1286.67 269.513 1298.73 267.059 1303.33 253.751C1303.33 253.751 1304.43 277.803 1285.65 282.691L1286.67 269.513Z" fill="#FF8370"/>
<path d="M1319.64 206.127C1319.64 206.127 1281.31 216.884 1260.88 214.404L1262.73 189.027L1319.64 197.304V206.127Z" fill="#FF8370"/>
<path d="M1267.07 253.978L1281.83 249.635C1281.83 249.635 1274.79 263.748 1267.07 253.978Z" fill="white"/>
</g>
<path d="M1314.74 200.589C1314.74 200.589 1296.14 194.74 1266.71 194.292C1237.28 193.844 1247.03 167.552 1247.03 167.552C1247.03 167.552 1314.74 148.239 1328.78 167.552C1342.82 186.865 1332.4 191.513 1332.4 191.513C1365.77 190.572 1329.23 239.235 1326.67 242.714L1317.02 224.816C1317.02 224.816 1322.7 225.219 1323.62 222.914C1324.55 220.603 1326.4 210.554 1324.15 209.736C1321.91 208.924 1314.37 213.676 1314.37 213.676L1314.74 200.589Z" fill="#38385C"/>
<path d="M1288.87 288.066C1288.87 288.066 1237.95 305.451 1231.59 320.155C1225.23 334.852 1245.61 506.074 1245.61 506.074H1378.84C1378.84 506.074 1393.99 347.381 1394.1 335.313C1394.37 304.425 1330.05 287.449 1330.05 287.449L1288.87 288.066Z" fill="#4C0ACE"/>
<path d="M1245.61 506.074L1269.18 889.707H1330.27V506.074H1245.61Z" fill="#38385C"/>
<path d="M1378.84 506.074L1390.86 539.358C1405.57 570.012 1388.67 678.639 1388.85 712.189L1475.44 852.256L1429.09 884.845L1322.5 762.04C1312.94 750.763 1307.68 736.313 1307.68 721.356V506.074H1378.84Z" fill="#38385C"/>
<path d="M1330.27 770.991C1330.27 770.991 1307.68 746.297 1307.68 727.522C1307.68 719.187 1302.53 588.981 1302.53 588.981C1302.53 588.981 1287.32 721.102 1287.94 736.65C1288.56 752.191 1330.27 809.507 1330.27 809.507V770.991Z" fill="#1A1A35"/>
<path d="M1288.79 287.45L1307.25 287.794C1301.88 295.24 1296.17 311.457 1284.51 302.79L1274.76 293.384L1288.79 287.45Z" fill="white"/>
<path d="M1306.77 287.728C1322.15 311.865 1319.84 303.757 1340.52 290.734L1330.02 287.118L1306.77 287.728Z" fill="white"/>
<path d="M1309.9 300.966C1315.8 298.707 1313.87 288.222 1312.22 287.45C1312.22 287.45 1306.41 283.516 1302.73 287.859C1302.63 287.515 1298.1 298.369 1302.78 301.55C1300.35 322.603 1286.45 443.013 1286.62 445.85C1286.81 448.96 1299.32 480.029 1299.32 480.029C1299.32 480.029 1320.73 453.491 1321.27 448.83C1321.76 444.526 1311.5 320.389 1309.9 300.966Z" fill="#38385C"/>
<path d="M1224.69 322.622L1164.12 431.405L1086.23 342.389L1050.58 367.785L1125.63 485.521C1133.8 498.342 1147.72 506.074 1162.65 506.074C1188.52 508.398 1201.39 491.155 1215.87 472.485C1211.73 492.681 1183.04 635.053 1184.96 677.379C1186.99 722.27 1260.78 753.015 1260.78 753.015L1270.25 295.246C1270.25 295.246 1231.41 309.054 1224.69 322.622Z" fill="white"/>
<mask id="mask7_166_2" style="mask-type:luminance" maskUnits="userSpaceOnUse" x="1050" y="295" width="221" height="459">
<path d="M1224.69 322.622L1164.12 431.405L1086.23 342.389L1050.58 367.785L1125.63 485.521C1133.8 498.342 1147.72 506.074 1162.65 506.074C1188.52 508.398 1201.39 491.155 1215.87 472.485C1211.73 492.681 1183.04 635.053 1184.96 677.379C1186.99 722.27 1260.78 753.015 1260.78 753.015L1270.25 295.246C1270.25 295.246 1231.41 309.054 1224.69 322.622Z" fill="white"/>
</mask>
<g mask="url(#mask7_166_2)">
<path d="M1266.89 457.56C1259.49 453.872 1242.29 445.355 1240.62 444.985C1238.49 444.518 1227.68 435.358 1227.68 435.358L1253.17 425.568L1267.37 434.449L1266.89 457.56Z" fill="#F1F6FE"/>
</g>
<path d="M1163.58 506.21C1148.54 506.21 1134.28 499.484 1125.63 485.52L1091.18 431.469C1091.18 431.476 1091.17 431.463 1091.18 431.469L1125.63 485.52C1133.8 498.342 1147.72 506.073 1162.65 506.073C1163.23 506.125 1163.81 506.171 1164.38 506.203C1164.11 506.203 1163.85 506.21 1163.58 506.21ZM1193.15 497.446C1201.58 491.077 1208.52 481.963 1215.87 472.485C1210.21 483.41 1202.19 491.778 1193.15 497.446Z" fill="#D7E6FE"/>
<path d="M1164.38 506.204C1163.81 506.172 1163.23 506.126 1162.65 506.074C1147.72 506.074 1133.8 498.342 1125.63 485.521L1091.18 431.47C1124.39 463.65 1146.5 477.913 1163.39 477.913C1189.65 477.913 1203.34 443.448 1226.73 388.404L1215.87 472.486C1208.52 481.964 1201.58 491.078 1193.14 497.447C1184.14 503.081 1174.12 506.048 1164.38 506.204Z" fill="#F1F6FE"/>
<path d="M1344.31 289.851C1344.31 289.851 1355.26 701.789 1372.25 723.049C1389.26 744.317 1458.73 782.157 1468.34 772.731C1477.94 763.299 1426.95 489.916 1426.95 461.813C1423.64 346.362 1448.31 319.818 1344.31 289.851Z" fill="white"/>
<path d="M1437.67 539.325C1435.76 527.309 1434 516.078 1432.48 506.074L1437.67 539.325Z" fill="#E3EEFE"/>
<path d="M1425.19 541.091C1389.96 541.091 1365.37 500.251 1351.23 483.32C1351.23 483.32 1367.14 491.136 1391.56 503.127C1401.29 507.911 1409.77 509.346 1416.44 509.346C1426.48 509.346 1432.43 506.1 1432.48 506.074C1434 516.078 1435.76 527.308 1437.67 539.325L1437.68 539.396C1433.38 540.558 1429.21 541.091 1425.19 541.091Z" fill="#F1F6FE"/>
<path d="M1347.88 400.277L1347.88 400.158C1347.88 400.202 1347.88 400.233 1347.88 400.277Z" fill="#EDA59E"/>
<path d="M1402.12 431.47L1348.59 418.986L1347.88 400.277C1347.88 400.231 1347.88 400.199 1347.88 400.153L1387.25 410.644C1384.69 368.714 1402.12 351.919 1402.12 351.919C1394.45 386.196 1402.12 431.47 1402.12 431.47Z" fill="#F1F6FE"/>
<path d="M1421.04 330.438L1458.6 446.771C1463.67 462.429 1460.46 479.659 1450.15 492.305C1436.59 508.943 1413.76 514.033 1394.7 504.671L1253.17 435.164L1260.59 396.765L1397.04 431.223C1397.04 431.223 1384.28 355.795 1421.04 330.438Z" fill="white"/>
<path d="M1086.61 396.219L1007.38 397.128C1000.74 403.211 935.249 294.233 931.369 291.987C929.884 289.78 931.395 286.774 934.004 286.741L1014.86 285.82C1016.69 285.794 1018.4 286.703 1019.44 288.241L1089.05 391.357C1090.43 393.395 1089.03 396.193 1086.61 396.219Z" fill="#38385C"/>
<path d="M1015.97 291.753L1079.59 386.241L1006.44 387.254L943.532 293.337L1015.97 291.753Z" fill="#D1DAF7"/>
<mask id="mask8_166_2" style="mask-type:luminance" maskUnits="userSpaceOnUse" x="943" y="291" width="137" height="97">
<path d="M1015.97 291.753L1079.59 386.241L1006.44 387.254L943.532 293.337L1015.97 291.753Z" fill="white"/>
</mask>
<g mask="url(#mask8_166_2)">
<path d="M1006.44 387.255L988.859 361.009C1014.86 339.391 1001.24 302.42 996.75 292.176L1015.97 291.754L1079.59 386.242L1006.44 387.255Z" fill="#DAE4FB"/>
</g>
<path d="M1078.8 347.68C1078.8 347.68 1062.97 332.229 1060.28 331.398C1057.58 330.567 1032.64 326.413 1032.51 327.802C1036.85 340.448 1049.01 342.46 1058.01 345.375C1058.01 345.375 1066.09 357.34 1065.81 356.931C1065.54 356.522 1078.8 347.68 1078.8 347.68Z" fill="#FFB6A6"/>
<path d="M1242 361.229C1239.7 360.19 1237.02 361.261 1236.01 363.624C1235.69 364.546 1199.99 447.278 1199.8 448.219L1199.78 448.206C1193.83 472.869 1191.98 472.589 1207.7 452.361C1208.8 451.153 1243.54 368.759 1244.33 367.39C1245.34 365.027 1244.3 362.268 1242 361.229Z" fill="#38385C"/>
<path d="M1259.57 402.024C1259.57 402.024 1242.5 390.89 1238.95 390.689C1235.39 390.488 1208.91 396.298 1209.11 402.024C1209.3 407.743 1223.14 435.768 1227.68 435.359C1232.22 434.956 1253.88 431.483 1253.88 431.483L1259.57 402.024Z" fill="#FFB6A6"/>
<mask id="mask9_166_2" style="mask-type:luminance" maskUnits="userSpaceOnUse" x="1209" y="390" width="51" height="46">
<path d="M1259.57 402.024C1259.57 402.024 1242.5 390.89 1238.95 390.689C1235.39 390.488 1208.91 396.298 1209.11 402.024C1209.3 407.743 1223.14 435.768 1227.68 435.359C1232.22 434.956 1253.88 431.483 1253.88 431.483L1259.57 402.024Z" fill="white"/>
</mask>
<g mask="url(#mask9_166_2)">
<path d="M1261.58 412.033C1261.58 412.033 1233.36 433.554 1219.95 430.217L1225.85 437.89L1262.39 434.391L1261.58 412.033Z" fill="#FF8370"/>
</g>
<path d="M1292.4 219.752L1292.04 218.506L1315.36 211.306L1315.72 212.546L1292.4 219.752Z" fill="#38385C"/>
<path d="M1267.07 206.165C1257.86 206.133 1257.86 229.75 1267.07 229.717C1276.27 229.75 1276.27 206.133 1267.07 206.165ZM1267.07 231.016C1256.21 231.029 1256.21 204.847 1267.07 204.867C1277.93 204.847 1277.93 231.035 1267.07 231.016Z" fill="#38385C"/>
<path d="M1284.53 207.353C1275.32 207.32 1275.32 230.937 1284.53 230.911C1293.73 230.937 1293.73 207.32 1284.53 207.353ZM1284.53 232.21C1273.66 232.223 1273.66 206.035 1284.53 206.054C1295.38 206.041 1295.38 232.223 1284.53 232.21Z" fill="#38385C"/>
<path d="M1276.74 218.928L1274.66 218.578L1274.87 217.299L1276.94 217.643L1276.74 218.928Z" fill="#38385C"/>
<path d="M802.939 144.415C799.748 336.228 522.063 336.202 518.898 144.408C522.088 -47.3984 799.78 -47.3659 802.939 144.415Z" fill="#C1A4FF"/>
<path d="M728.113 61.0538L638.874 152.744L603.341 116.234L577.449 142.838L612.982 179.354L612.888 179.451L638.78 206.055L754.005 87.6572L728.113 61.0538Z" fill="#E3EEFD"/>
</svg>
